<svg width="13" height="9" viewBox="0 0 13 9" fill="none" xmlns="http://www.w3.org/2000/svg">
<g clip-path="url(#clip0_11861_35293)">
<path d="M0.179688 8.75959H12.1797V0.959595H0.179688V8.75959Z" fill="#016FD0"/>
<path fill-rule="evenodd" clip-rule="evenodd" d="M9.38654 5.04851V5.54051H8.13554V5.88251H9.35654V6.37451H8.13554V6.71051H9.38654V7.20851L10.4005 6.12851L9.38654 5.04851ZM9.05654 3.20651L8.63654 2.24951H7.43654L6.20654 5.04551H7.20554V7.52651L10.2895 7.52951L10.7725 6.98951L11.2615 7.52951H12.1795V6.74051L11.6035 6.12251L12.1795 5.50751V4.73051L11.6005 4.73351V3.23951L11.0575 4.73351H10.5295L9.97154 3.23351V4.73351H8.71154L8.53154 4.29551H7.54154L7.36154 4.73351H6.69554L7.66454 2.55251V2.54951H8.42954L9.38654 4.71251V2.54951L10.3165 2.55251L10.7965 3.89351L11.2825 2.54951H12.1795V2.24951H11.0485L10.7935 2.96651L10.5385 2.24951H9.05654V3.20651ZM7.53854 5.03951V7.22051H9.38654V7.21751H10.1485L10.7785 6.52151L11.4145 7.21751H12.1795V7.18751L11.1775 6.12851L12.1795 5.05451V5.03951H11.4235L10.7935 5.72951L10.1695 5.03951H7.53854ZM7.74854 3.80651L8.03654 3.11351L8.32754 3.80651H7.74854Z" fill="white"/>
</g>
<defs>
<clipPath id="clip0_11861_35293">
<rect width="12" height="7.8" fill="white" transform="translate(0.179688 0.959351)"/>
</clipPath>
</defs>
</svg>
