<svg width="64" height="64" viewBox="0 0 64 64" fill="none" xmlns="http://www.w3.org/2000/svg">
<path d="M8 32C8 18.7812 18.6875 8 32 8C45.2188 8 56 18.7812 56 32C56 45.3125 45.2188 56 32 56C18.6875 56 8 45.3125 8 32ZM42.7812 27.875C43.8125 26.8438 43.8125 25.25 42.7812 24.2188C41.75 23.1875 40.1562 23.1875 39.125 24.2188L29 34.3438L24.7812 30.2188C23.75 29.1875 22.1562 29.1875 21.125 30.2188C20.0938 31.25 20.0938 32.8438 21.125 33.875L27.125 39.875C28.1562 40.9062 29.75 40.9062 30.7812 39.875L42.7812 27.875Z" fill="#4D5F2C"/>
</svg>
