<svg width="105" height="24" viewBox="0 0 105 24" fill="none" xmlns="http://www.w3.org/2000/svg">
<path d="M20.9648 16.5928L20.1211 20.1435C20.0156 20.6709 19.5938 21.0224 19.0664 21.0224C10.207 20.9873 3 13.7803 3 4.92088C3 4.39354 3.31641 3.97166 3.84375 3.8662L7.39453 3.02245C7.88672 2.91698 8.41406 3.19823 8.625 3.65526L10.2773 7.48729C10.4531 7.94432 10.3477 8.47166 9.96094 8.75291L8.0625 10.2998C9.25781 12.7256 11.2266 14.6943 13.6875 15.8896L15.2344 13.9912C15.5156 13.6396 16.043 13.499 16.5 13.6748L20.332 15.3271C20.7891 15.5732 21.0703 16.1006 20.9648 16.5928Z" fill="#8F8F8F"/>
<path d="M30.602 11.614C30.602 10.662 30.8167 9.808 31.246 9.052C31.6753 8.28667 32.2587 7.68933 32.996 7.26C33.7427 6.83067 34.5687 6.616 35.474 6.616C36.538 6.616 37.4667 6.87267 38.26 7.386C39.0533 7.89933 39.632 8.62733 39.996 9.57H38.47C38.1993 8.982 37.8073 8.52933 37.294 8.212C36.79 7.89467 36.1833 7.736 35.474 7.736C34.7927 7.736 34.1813 7.89467 33.64 8.212C33.0987 8.52933 32.674 8.982 32.366 9.57C32.058 10.1487 31.904 10.83 31.904 11.614C31.904 12.3887 32.058 13.07 32.366 13.658C32.674 14.2367 33.0987 14.6847 33.64 15.002C34.1813 15.3193 34.7927 15.478 35.474 15.478C36.1833 15.478 36.79 15.324 37.294 15.016C37.8073 14.6987 38.1993 14.246 38.47 13.658H39.996C39.632 14.5913 39.0533 15.3147 38.26 15.828C37.4667 16.332 36.538 16.584 35.474 16.584C34.5687 16.584 33.7427 16.374 32.996 15.954C32.2587 15.5247 31.6753 14.932 31.246 14.176C30.8167 13.42 30.602 12.566 30.602 11.614ZM45.0985 16.626C44.3798 16.626 43.7265 16.4627 43.1385 16.136C42.5598 15.8093 42.1025 15.3473 41.7665 14.75C41.4398 14.1433 41.2765 13.4433 41.2765 12.65C41.2765 11.866 41.4445 11.1753 41.7805 10.578C42.1258 9.97133 42.5925 9.50933 43.1805 9.192C43.7685 8.86533 44.4265 8.702 45.1545 8.702C45.8825 8.702 46.5405 8.86533 47.1285 9.192C47.7165 9.50933 48.1785 9.96667 48.5145 10.564C48.8598 11.1613 49.0325 11.8567 49.0325 12.65C49.0325 13.4433 48.8551 14.1433 48.5005 14.75C48.1551 15.3473 47.6838 15.8093 47.0865 16.136C46.4891 16.4627 45.8265 16.626 45.0985 16.626ZM45.0985 15.506C45.5558 15.506 45.9851 15.3987 46.3865 15.184C46.7878 14.9693 47.1098 14.6473 47.3525 14.218C47.6045 13.7887 47.7305 13.266 47.7305 12.65C47.7305 12.034 47.6091 11.5113 47.3665 11.082C47.1238 10.6527 46.8065 10.3353 46.4145 10.13C46.0225 9.91533 45.5978 9.808 45.1405 9.808C44.6738 9.808 44.2445 9.91533 43.8525 10.13C43.4698 10.3353 43.1618 10.6527 42.9285 11.082C42.6951 11.5113 42.5785 12.034 42.5785 12.65C42.5785 13.2753 42.6905 13.8027 42.9145 14.232C43.1478 14.6613 43.4558 14.9833 43.8385 15.198C44.2211 15.4033 44.6411 15.506 45.0985 15.506ZM54.3055 8.688C55.2389 8.688 55.9949 8.97267 56.5735 9.542C57.1522 10.102 57.4415 10.914 57.4415 11.978V16.5H56.1815V12.16C56.1815 11.3947 55.9902 10.8113 55.6075 10.41C55.2249 9.99933 54.7022 9.794 54.0395 9.794C53.3675 9.794 52.8309 10.004 52.4295 10.424C52.0375 10.844 51.8415 11.4553 51.8415 12.258V16.5H50.5675V8.828H51.8415V9.92C52.0935 9.528 52.4342 9.22467 52.8635 9.01C53.3022 8.79533 53.7829 8.688 54.3055 8.688ZM60.9366 9.878V14.4C60.9366 14.7733 61.0159 15.0393 61.1746 15.198C61.3333 15.3473 61.6086 15.422 62.0006 15.422H62.9386V16.5H61.7906C61.0813 16.5 60.5493 16.3367 60.1946 16.01C59.8399 15.6833 59.6626 15.1467 59.6626 14.4V9.878H58.6686V8.828H59.6626V6.896H60.9366V8.828H62.9386V9.878H60.9366ZM63.8662 12.636C63.8662 11.852 64.0249 11.166 64.3422 10.578C64.6596 9.98067 65.0936 9.51867 65.6442 9.192C66.2042 8.86533 66.8249 8.702 67.5062 8.702C68.1782 8.702 68.7616 8.84667 69.2562 9.136C69.7509 9.42533 70.1196 9.78933 70.3622 10.228V8.828H71.6502V16.5H70.3622V15.072C70.1102 15.52 69.7322 15.8933 69.2282 16.192C68.7336 16.4813 68.1549 16.626 67.4922 16.626C66.8109 16.626 66.1949 16.458 65.6442 16.122C65.0936 15.786 64.6596 15.3147 64.3422 14.708C64.0249 14.1013 63.8662 13.4107 63.8662 12.636ZM70.3622 12.65C70.3622 12.0713 70.2456 11.5673 70.0122 11.138C69.7789 10.7087 69.4616 10.382 69.0602 10.158C68.6682 9.92467 68.2342 9.808 67.7582 9.808C67.2822 9.808 66.8482 9.92 66.4562 10.144C66.0642 10.368 65.7516 10.6947 65.5182 11.124C65.2849 11.5533 65.1682 12.0573 65.1682 12.636C65.1682 13.224 65.2849 13.7373 65.5182 14.176C65.7516 14.6053 66.0642 14.9367 66.4562 15.17C66.8482 15.394 67.2822 15.506 67.7582 15.506C68.2342 15.506 68.6682 15.394 69.0602 15.17C69.4616 14.9367 69.7789 14.6053 70.0122 14.176C70.2456 13.7373 70.3622 13.2287 70.3622 12.65ZM73.1872 12.65C73.1872 11.8567 73.3458 11.166 73.6632 10.578C73.9805 9.98067 74.4192 9.51867 74.9792 9.192C75.5485 8.86533 76.1972 8.702 76.9252 8.702C77.8678 8.702 78.6425 8.93067 79.2492 9.388C79.8652 9.84533 80.2712 10.48 80.4672 11.292H79.0952C78.9645 10.8253 78.7078 10.4567 78.3252 10.186C77.9518 9.91533 77.4852 9.78 76.9252 9.78C76.1972 9.78 75.6092 10.032 75.1612 10.536C74.7132 11.0307 74.4892 11.7353 74.4892 12.65C74.4892 13.574 74.7132 14.288 75.1612 14.792C75.6092 15.296 76.1972 15.548 76.9252 15.548C77.4852 15.548 77.9518 15.4173 78.3252 15.156C78.6985 14.8947 78.9552 14.5213 79.0952 14.036H80.4672C80.2618 14.82 79.8512 15.45 79.2352 15.926C78.6192 16.3927 77.8492 16.626 76.9252 16.626C76.1972 16.626 75.5485 16.4627 74.9792 16.136C74.4192 15.8093 73.9805 15.3473 73.6632 14.75C73.3458 14.1527 73.1872 13.4527 73.1872 12.65ZM83.5811 9.878V14.4C83.5811 14.7733 83.6604 15.0393 83.8191 15.198C83.9777 15.3473 84.2531 15.422 84.6451 15.422H85.5831V16.5H84.4351C83.7257 16.5 83.1937 16.3367 82.8391 16.01C82.4844 15.6833 82.3071 15.1467 82.3071 14.4V9.878H81.3131V8.828H82.3071V6.896H83.5811V8.828H85.5831V9.878H83.5811Z" fill="#1E1E1E"/>
<path d="M101.178 6.0625V11.6875C101.178 12.0156 100.921 12.25 100.616 12.25C100.288 12.25 100.053 12.0156 100.053 11.6875V7.42188L94.6393 12.8359C94.5222 12.9531 94.3815 13 94.2409 13C94.0768 13 93.9362 12.9531 93.8425 12.8359C93.6081 12.625 93.6081 12.2734 93.8425 12.0625L99.2565 6.625H94.9909C94.6628 6.625 94.4284 6.39063 94.4284 6.0625C94.4284 5.75781 94.6628 5.5 94.9909 5.5H100.616C100.921 5.5 101.178 5.75781 101.178 6.0625Z" fill="#1F1F1F"/>
</svg>
