<svg width="15" height="10" viewBox="0 0 15 10" fill="none" xmlns="http://www.w3.org/2000/svg">
<g clip-path="url(#clip0_11861_35371)">
<path d="M14.4189 2.85938V2.54688C14.4189 2.09932 14.2411 1.6701 13.9247 1.35363C13.6082 1.03717 13.179 0.859375 12.7314 0.859375H2.60645C2.15889 0.859375 1.72967 1.03717 1.4132 1.35363C1.09673 1.6701 0.918945 2.09932 0.918945 2.54688V2.85938H14.4189Z" fill="#E6E9EB"/>
<path d="M0.918945 4.35938V8.19271C0.918945 8.63476 1.09673 9.05866 1.4132 9.37126C1.72967 9.68381 2.15889 9.85941 2.60645 9.85941H12.7314C13.179 9.85941 13.6082 9.68381 13.9247 9.37126C14.2411 9.05866 14.4189 8.63476 14.4189 8.19271V4.35938H0.918945Z" fill="#E6E9EB"/>
<path d="M14.4189 2.85944H0.918945V4.35944H14.4189V2.85944Z" fill="#687282"/>
<path d="M2.91895 6.35938C2.91895 6.08323 3.14281 5.85938 3.41895 5.85938H11.4189C11.9712 5.85938 12.4189 6.30708 12.4189 6.85938C12.4189 7.41167 11.9712 7.85938 11.4189 7.85938H3.41895C3.1428 7.85938 2.91895 7.63552 2.91895 7.35938V6.35938Z" fill="white"/>
<path d="M11.4189 5.60938H10.4189C9.72859 5.60938 9.16895 6.16902 9.16895 6.85938C9.16895 7.54973 9.72859 8.10938 10.4189 8.10938H11.4189C12.1093 8.10938 12.6689 7.54973 12.6689 6.85938C12.6689 6.16902 12.1093 5.60938 11.4189 5.60938Z" stroke="#C12424" stroke-width="0.5"/>
</g>
<defs>
<clipPath id="clip0_11861_35371">
<rect width="13.5" height="9" fill="white" transform="translate(0.918945 0.859375)"/>
</clipPath>
</defs>
</svg>
