<svg width="13" height="9" viewBox="0 0 13 9" fill="none" xmlns="http://www.w3.org/2000/svg">
<g clip-path="url(#clip0_11861_35298)">
<path d="M0.179688 0.959595H12.1797V8.75959H0.179688V0.959595Z" fill="white"/>
<path d="M1.96746 5.63329C1.96746 5.46529 1.87746 5.47729 1.79346 5.47429V5.42629H2.33946C2.43268 5.41721 2.52678 5.42737 2.61591 5.45615C2.70505 5.48493 2.78733 5.5317 2.85764 5.59358C2.92796 5.65546 2.98482 5.73112 3.02469 5.81588C3.06457 5.90063 3.08661 5.99267 3.08946 6.08629C3.08946 6.26929 2.98146 6.73729 2.31846 6.73729H1.79346V6.68929C1.90746 6.67729 1.96146 6.67429 1.96746 6.54529V5.63329ZM2.15046 6.51529C2.15046 6.66229 2.25546 6.67729 2.34546 6.67729C2.421 6.67995 2.49623 6.66627 2.566 6.63717C2.63577 6.60808 2.69843 6.56426 2.74971 6.50872C2.80098 6.45317 2.83965 6.38721 2.86308 6.31534C2.88651 6.24347 2.89414 6.16738 2.88546 6.09229C2.89148 6.01271 2.88055 5.93275 2.85338 5.85771C2.82621 5.78266 2.78342 5.71424 2.72784 5.65696C2.67226 5.59968 2.60516 5.55485 2.53097 5.52543C2.45678 5.49601 2.37719 5.48267 2.29746 5.48629C2.21946 5.48629 2.18646 5.49229 2.15046 5.49229V6.51529ZM3.15846 6.68929H3.19446C3.24546 6.68929 3.28446 6.68929 3.28446 6.62929V6.11929C3.28446 6.03529 3.25446 6.02329 3.18546 5.98729V5.95729L3.38646 5.88829C3.39647 5.88245 3.40786 5.87934 3.41946 5.87929C3.42846 5.87929 3.43446 5.89129 3.43446 5.90629V6.62629C3.43446 6.68929 3.47346 6.68929 3.52446 6.68929H3.55746V6.73729H3.15846V6.68929ZM3.35946 5.58829C3.33519 5.58829 3.31192 5.57865 3.29476 5.56149C3.2776 5.54433 3.26796 5.52106 3.26796 5.49679C3.26796 5.47253 3.2776 5.44925 3.29476 5.43209C3.31192 5.41493 3.33519 5.40529 3.35946 5.40529C3.38333 5.40529 3.40622 5.41478 3.4231 5.43165C3.43997 5.44853 3.44946 5.47142 3.44946 5.49529C3.44947 5.51945 3.44008 5.54266 3.42329 5.56002C3.40649 5.57737 3.3836 5.58751 3.35946 5.58829ZM3.73746 6.12829C3.73746 6.05929 3.71646 6.03829 3.62946 6.00529V5.96929C3.71295 5.94356 3.79506 5.91352 3.87546 5.87929C3.88146 5.87929 3.88746 5.88229 3.88746 5.89729V6.01729C3.97737 5.93696 4.09123 5.88847 4.21146 5.87929C4.37046 5.87929 4.42746 5.99629 4.42746 6.14329V6.62629C4.42746 6.68929 4.46946 6.68929 4.52046 6.68929H4.55646V6.73729H4.15446V6.68929H4.18746C4.24146 6.68929 4.27746 6.68929 4.27746 6.62929V6.14029C4.27746 6.03229 4.21146 5.98129 4.10646 5.98129C4.02728 5.99325 3.95216 6.02412 3.88746 6.07129V6.62629C3.88746 6.68929 3.92946 6.68929 3.98046 6.68929H4.01646V6.73729H3.61446V6.68929H3.64446C3.69846 6.68929 3.73446 6.68929 3.73446 6.62929V6.12829M4.69746 6.21829C4.69302 6.25516 4.69302 6.29243 4.69746 6.32929C4.69461 6.40803 4.72137 6.48498 4.77246 6.54496C4.82355 6.60494 4.89527 6.64359 4.97346 6.65329C5.02229 6.65071 5.07009 6.63821 5.11393 6.61654C5.15777 6.59488 5.19674 6.56451 5.22846 6.52729L5.25246 6.55429C5.21584 6.61425 5.16542 6.66458 5.10541 6.70111C5.0454 6.73764 4.97753 6.7593 4.90746 6.76429C4.85672 6.76204 4.80696 6.74958 4.76114 6.72767C4.71533 6.70576 4.6744 6.67484 4.6408 6.63676C4.60719 6.59868 4.58161 6.55421 4.56557 6.50603C4.54954 6.45784 4.54338 6.40691 4.54746 6.35629C4.54746 5.98729 4.79646 5.87629 4.92846 5.87629C4.9691 5.87426 5.00973 5.88051 5.04787 5.89468C5.08602 5.90884 5.12089 5.93061 5.15035 5.95868C5.17982 5.98674 5.20327 6.0205 5.21927 6.05791C5.23528 6.09533 5.24351 6.1356 5.24346 6.17629C5.24413 6.18628 5.24413 6.1963 5.24346 6.20629L5.22546 6.21829H4.69746ZM5.03046 6.15829C5.07846 6.15829 5.08446 6.13429 5.08446 6.11029C5.08617 6.08791 5.08312 6.06542 5.07552 6.0443C5.06792 6.02318 5.05593 6.00391 5.04034 5.98776C5.02475 5.9716 5.00592 5.95893 4.98509 5.95058C4.96425 5.94223 4.94189 5.93838 4.91946 5.93929C4.80546 5.93929 4.72746 6.02329 4.70346 6.15829H5.03046ZM5.28846 6.68929H5.33946C5.39046 6.68929 5.42946 6.68929 5.42946 6.62929V6.09829C5.42946 6.03829 5.36046 6.02929 5.33046 6.01429V5.98429C5.46846 5.92729 5.54046 5.87929 5.56146 5.87929C5.57046 5.87929 5.57646 5.88529 5.57646 5.90329V6.07129H5.57946C5.62746 5.99929 5.70546 5.87929 5.81946 5.87929C5.8331 5.87848 5.84676 5.88042 5.85964 5.885C5.87252 5.88957 5.88435 5.89669 5.89442 5.90592C5.90449 5.91516 5.91261 5.92632 5.91828 5.93876C5.92396 5.95119 5.92708 5.96463 5.92746 5.97829C5.92828 5.99061 5.92656 6.00296 5.92241 6.01458C5.91825 6.0262 5.91176 6.03684 5.90332 6.04585C5.89487 6.05485 5.88467 6.06202 5.87334 6.06692C5.86201 6.07181 5.8498 6.07432 5.83746 6.07429C5.78046 6.07429 5.78046 6.02929 5.71746 6.02929C5.67953 6.03434 5.64471 6.0529 5.61936 6.08155C5.59401 6.11021 5.57984 6.14704 5.57946 6.18529V6.62629C5.57946 6.68929 5.61546 6.68929 5.66946 6.68929H5.77446V6.73729H5.51046C5.43646 6.73624 5.36245 6.73624 5.28846 6.73729V6.68929ZM6.01146 6.47929C6.01642 6.53912 6.04284 6.59514 6.08583 6.63704C6.12883 6.67893 6.18552 6.70388 6.24546 6.70729C6.26472 6.71041 6.28444 6.70922 6.30318 6.7038C6.32193 6.69838 6.33924 6.68888 6.35387 6.67597C6.36851 6.66306 6.38009 6.64706 6.3878 6.62913C6.39551 6.61121 6.39915 6.59179 6.39846 6.57229C6.39846 6.35029 5.99046 6.42229 5.99046 6.12229C5.99223 6.08672 6.00135 6.05191 6.01723 6.02004C6.03312 5.98816 6.05543 5.95992 6.08277 5.9371C6.1101 5.91427 6.14187 5.89735 6.17606 5.8874C6.21026 5.87746 6.24614 5.87469 6.28146 5.87929C6.35562 5.881 6.42844 5.89947 6.49446 5.93329L6.50646 6.12529H6.46446C6.4637 6.09955 6.45778 6.07421 6.44703 6.0508C6.43628 6.0274 6.42093 6.00639 6.4019 5.98903C6.38287 5.97168 6.36053 5.95833 6.33623 5.94979C6.31193 5.94124 6.28616 5.93767 6.26046 5.93929C6.24264 5.93722 6.22459 5.9388 6.2074 5.94394C6.19022 5.94908 6.17426 5.95766 6.1605 5.96917C6.14674 5.98068 6.13548 5.99488 6.12739 6.01089C6.1193 6.0269 6.11456 6.04439 6.11346 6.06229C6.11346 6.28429 6.54846 6.21529 6.54846 6.51229C6.54846 6.63229 6.44946 6.76729 6.22746 6.76729C6.14619 6.76472 6.06682 6.74204 5.99646 6.70129L5.97546 6.48529L6.01146 6.47629M8.24346 5.76529H8.19846C8.18504 5.67172 8.13536 5.58719 8.06015 5.52993C7.98493 5.47268 7.89022 5.44731 7.79646 5.45929C7.72081 5.45962 7.64609 5.47592 7.57719 5.50713C7.50828 5.53834 7.44675 5.58375 7.39661 5.6404C7.34648 5.69705 7.30888 5.76364 7.28628 5.83583C7.26368 5.90802 7.25658 5.98417 7.26546 6.05929C7.25468 6.21975 7.30749 6.378 7.41247 6.49982C7.51745 6.62165 7.66617 6.69725 7.82646 6.71029C7.91778 6.70978 8.00588 6.67648 8.0747 6.61646C8.14353 6.55644 8.18852 6.47369 8.20146 6.38329L8.24646 6.39529L8.20146 6.66829C8.07189 6.73025 7.93098 6.76497 7.78746 6.77029C7.692 6.77737 7.59614 6.76387 7.50635 6.73073C7.41656 6.69758 7.33492 6.64556 7.26696 6.57816C7.19899 6.51076 7.14628 6.42957 7.11238 6.34006C7.07848 6.25055 7.06419 6.1548 7.07046 6.05929C7.07826 5.87785 7.15729 5.7068 7.29039 5.58325C7.42349 5.4597 7.59994 5.3936 7.78146 5.39929C7.93399 5.40694 8.08412 5.44042 8.22546 5.49829L8.24346 5.76829M8.30946 6.68929H8.34846C8.39946 6.68929 8.43846 6.68929 8.43846 6.62929V5.57929C8.43846 5.45929 8.40846 5.45329 8.33646 5.43229V5.40229C8.40373 5.38113 8.46899 5.35403 8.53146 5.32129C8.54457 5.31265 8.55867 5.3056 8.57346 5.30029C8.58246 5.30029 8.58846 5.31229 8.58846 5.33029V6.62629C8.58846 6.68929 8.62746 6.68929 8.67846 6.68929H8.71446V6.73729H8.30946V6.68929ZM9.51546 6.63529C9.51546 6.66829 9.53646 6.67129 9.56946 6.67129H9.64446V6.70729C9.55312 6.7207 9.46288 6.74076 9.37446 6.76729L9.36546 6.76129V6.61129C9.27789 6.70313 9.15907 6.7588 9.03246 6.76729C9.00355 6.76787 8.97486 6.7623 8.94827 6.75095C8.92168 6.7396 8.89781 6.72273 8.87824 6.70145C8.85867 6.68018 8.84384 6.65499 8.83474 6.62755C8.82564 6.60011 8.82247 6.57105 8.82546 6.54229V6.06229C8.82546 6.01129 8.81946 5.96629 8.71446 5.95729V5.92129L8.95446 5.90629C8.97546 5.90629 8.97546 5.92129 8.97546 5.96029V6.44629C8.97546 6.50329 8.97546 6.66529 9.14046 6.66529C9.22537 6.65124 9.30391 6.61145 9.36546 6.55129V6.04129C9.36546 6.00529 9.27546 5.98729 9.20946 5.96629V5.93329C9.37746 5.92129 9.48246 5.90629 9.50046 5.90629C9.51546 5.90629 9.51546 5.92129 9.51546 5.93929V6.63529ZM9.89046 6.01429C9.9657 5.9393 10.064 5.89176 10.1695 5.87929C10.2183 5.88156 10.2663 5.89361 10.3104 5.91474C10.3546 5.93586 10.394 5.96562 10.4265 6.00226C10.4589 6.0389 10.4837 6.08168 10.4993 6.12806C10.515 6.17444 10.5211 6.22349 10.5175 6.27229C10.5232 6.39754 10.479 6.51995 10.3947 6.61272C10.3103 6.7055 10.1927 6.76107 10.0675 6.76729C9.97736 6.76668 9.88878 6.74402 9.80946 6.70129L9.75246 6.74329L9.71346 6.72229C9.73084 6.61213 9.73987 6.50082 9.74046 6.38929V5.57929C9.74046 5.45929 9.71046 5.45329 9.64146 5.43229V5.40229C9.70772 5.38101 9.77197 5.35391 9.83346 5.32129C9.84659 5.31268 9.86068 5.30563 9.87546 5.30029C9.88746 5.30029 9.89046 5.31229 9.89046 5.33029V6.01429ZM9.89046 6.52429C9.89266 6.57451 9.91359 6.62207 9.94913 6.65761C9.98468 6.69316 10.0322 6.71409 10.0825 6.71629C10.2835 6.71629 10.3675 6.52129 10.3675 6.35329C10.3716 6.26532 10.3434 6.17889 10.2881 6.11033C10.2328 6.04178 10.1543 5.99587 10.0675 5.98129C9.99859 5.98867 9.93468 6.02062 9.88746 6.07129V6.52429H9.89046ZM1.79346 7.83229H1.80546C1.84446 7.83229 1.88346 7.82629 1.88346 7.77229V7.23829C1.88346 7.18429 1.84446 7.17829 1.80546 7.17829H1.79346V7.14829L1.94346 7.15129L2.10546 7.14829V7.17829H2.09046C2.05446 7.17829 2.01546 7.18429 2.01546 7.23829V7.77529C2.01546 7.82629 2.05446 7.83229 2.09046 7.83229H2.10546V7.86229L1.94346 7.85929L1.79346 7.86229V7.83229Z" fill="#1A1918"/>
<path d="M2.1056 7.86833L1.9436 7.85933L1.7936 7.86533H1.7876V7.82333H1.8056C1.8446 7.82333 1.8776 7.82333 1.8776 7.77233V7.23233C1.8776 7.18433 1.8446 7.18133 1.8056 7.18133H1.7876V7.14233H2.1086V7.18133H2.0906C2.0516 7.18133 2.0186 7.18433 2.0186 7.23533V7.77233C2.0186 7.82033 2.0516 7.82333 2.0906 7.82333H2.1086V7.86533L2.1056 7.86833ZM2.0996 7.85933V7.83533H2.0906C2.0546 7.83533 2.0096 7.82933 2.0096 7.77533V7.23533C2.0096 7.18133 2.0546 7.17533 2.0906 7.17533H2.0996V7.15433H1.7996V7.17533H1.8086C1.8476 7.17533 1.8896 7.18133 1.8896 7.23533V7.77533C1.8896 7.82933 1.8476 7.83533 1.8086 7.83533H1.7996V7.85933L1.9466 7.85333L2.1026 7.85933H2.0996ZM2.8046 7.66133H2.8076V7.27433C2.80945 7.26182 2.80845 7.24904 2.80467 7.23697C2.80089 7.22489 2.79444 7.21383 2.78578 7.2046C2.77713 7.19537 2.7665 7.18821 2.7547 7.18366C2.74289 7.17912 2.73021 7.17729 2.7176 7.17833H2.6996V7.14833L2.8436 7.15133L2.9696 7.14833V7.17833H2.9516C2.9096 7.17833 2.8616 7.18733 2.8616 7.31033V7.77533C2.86104 7.80944 2.86305 7.84353 2.8676 7.87733H2.8286L2.3006 7.28933V7.71233C2.3006 7.80233 2.3186 7.83233 2.3966 7.83233H2.4146V7.86233L2.2796 7.85933L2.1386 7.86233V7.83233H2.1536C2.2256 7.83233 2.2436 7.78433 2.2436 7.70333V7.27133C2.2436 7.25952 2.24127 7.24781 2.23675 7.23689C2.23222 7.22597 2.22559 7.21605 2.21724 7.20769C2.20888 7.19934 2.19896 7.19271 2.18804 7.18818C2.17712 7.18366 2.16542 7.18133 2.1536 7.18133H2.1386V7.14833L2.2586 7.15133L2.3486 7.14833L2.8016 7.66133" fill="#1A1918"/>
<path d="M2.86474 7.88341H2.82274L2.30374 7.30141V7.71241C2.30374 7.80241 2.31874 7.82641 2.39374 7.82641H2.41774V7.86841H2.41474L2.27974 7.85941L2.13874 7.86541H2.13574V7.82341H2.15374C2.22274 7.82341 2.24374 7.78141 2.24374 7.70041V7.26841C2.24374 7.24454 2.23426 7.22165 2.21738 7.20477C2.2005 7.18789 2.17761 7.17841 2.15374 7.17841H2.13574V7.14241H2.35174L2.80174 7.64941V7.27141C2.80174 7.19041 2.74474 7.18141 2.71474 7.18141H2.68774V7.14241H2.96974V7.18141H2.94874C2.90674 7.18141 2.86474 7.18441 2.86474 7.30741V7.77241C2.86419 7.80651 2.86619 7.84061 2.87074 7.87441V7.88041L2.86474 7.88341ZM2.82574 7.87441H2.85874C2.85537 7.84152 2.85437 7.80844 2.85574 7.77541V7.31041C2.85574 7.18741 2.90674 7.17541 2.94874 7.17541H2.96074V7.15441H2.69974V7.17541H2.71774C2.73085 7.17446 2.74401 7.1764 2.75629 7.18108C2.76857 7.18577 2.77968 7.19309 2.78883 7.20252C2.79798 7.21196 2.80495 7.22328 2.80925 7.2357C2.81356 7.24812 2.81509 7.26133 2.81374 7.27441V7.66441H2.80774V7.66741L2.35174 7.15441H2.14774V7.17541H2.15674C2.1822 7.17541 2.20662 7.18552 2.22462 7.20353C2.24263 7.22153 2.25274 7.24595 2.25274 7.27141V7.70341C2.25274 7.78441 2.23174 7.83541 2.15674 7.83841H2.14774V7.85941L2.28274 7.85341L2.40874 7.85941V7.83841H2.39974C2.31874 7.83841 2.29774 7.80241 2.29774 7.71241V7.28041L2.82874 7.87441H2.82574ZM2.80474 7.66141L2.80774 7.65841V7.66141H2.80474ZM3.11974 7.19941C3.04174 7.19941 3.03874 7.21741 3.02374 7.29241H2.99374L3.00574 7.20541C3.00981 7.17659 3.01181 7.14751 3.01174 7.11841H3.03574C3.04474 7.14841 3.06874 7.14841 3.09574 7.14841H3.62374C3.65374 7.14841 3.67774 7.14841 3.67774 7.11841H3.70474L3.69274 7.20241V7.28641L3.65974 7.29841C3.65974 7.25941 3.65374 7.19941 3.58474 7.19941H3.41674V7.74541C3.41674 7.82341 3.45274 7.83241 3.50074 7.83241H3.52174V7.86241L3.35374 7.85941L3.18274 7.86241V7.83241H3.20074C3.25774 7.83241 3.28474 7.82641 3.28474 7.74541V7.19941H3.11974Z" fill="#1A1918"/>
<path d="M3.5213 7.8683L3.3533 7.8623L3.1823 7.8683H3.1763V7.8263H3.2003C3.2573 7.8263 3.2783 7.8263 3.2813 7.7453V7.2053H3.1193V7.1963H3.2903V7.7453C3.2903 7.8293 3.2573 7.8353 3.2003 7.8353H3.1853V7.8593L3.3533 7.8533L3.5153 7.8593V7.8383H3.5003C3.4523 7.8383 3.4103 7.8233 3.4103 7.7453V7.1963H3.5843C3.6533 7.1963 3.6623 7.2563 3.6623 7.2923L3.6863 7.2833C3.68674 7.2301 3.69075 7.17698 3.6983 7.1243H3.6833C3.6773 7.1543 3.6503 7.1543 3.6233 7.1543H3.0923C3.0683 7.1543 3.0413 7.1543 3.0323 7.1243H3.0143C3.0141 7.15141 3.0121 7.17847 3.0083 7.2053C3.0083 7.2353 3.0023 7.2623 2.9963 7.2893H3.0203C3.0323 7.2173 3.0413 7.1933 3.1193 7.1963V7.2053C3.0413 7.2053 3.0443 7.2173 3.0293 7.2953H2.9873V7.2923L2.9993 7.2023C3.00334 7.17449 3.00535 7.14641 3.0053 7.1183V7.1153H3.0383C3.0473 7.1453 3.0653 7.1453 3.0923 7.1453H3.6233C3.6533 7.1453 3.6713 7.1453 3.6743 7.1153V7.1123H3.6803L3.7103 7.1183L3.7073 7.1213L3.6953 7.2053V7.2893H3.6923L3.6563 7.3043V7.2983C3.6533 7.2593 3.6473 7.2053 3.5843 7.2053H3.4193V7.7453C3.4193 7.8203 3.4523 7.8263 3.5003 7.8263H3.5243V7.8683H3.5213ZM3.7343 7.8323H3.7493C3.7853 7.8323 3.8243 7.8263 3.8243 7.7723V7.2383C3.8243 7.1843 3.7853 7.1783 3.7493 7.1783H3.7343V7.1483L3.9893 7.1513L4.2503 7.1483L4.2533 7.3043L4.2233 7.3133C4.2173 7.2473 4.2053 7.1933 4.0973 7.1933H3.9563V7.4633H4.0763C4.1363 7.4633 4.1513 7.4273 4.1573 7.3733H4.1873V7.6073L4.1573 7.6133C4.1513 7.5533 4.1483 7.5143 4.0793 7.5143H3.9593V7.7513C3.9593 7.8173 4.0163 7.8173 4.0793 7.8173C4.2023 7.8173 4.2593 7.8083 4.2893 7.6943L4.3193 7.7003C4.30537 7.75386 4.29336 7.80789 4.2833 7.8623L4.0073 7.8593L3.7373 7.8623V7.8323" fill="#1A1918"/>
<path d="M4.28345 7.86826L4.00745 7.86226L3.73745 7.86826H3.73145V7.82626H3.74945C3.78845 7.82626 3.82145 7.82626 3.82145 7.77526V7.23526C3.82145 7.18726 3.78845 7.18426 3.74945 7.18426H3.73145V7.14526H4.25645V7.14826C4.25321 7.20021 4.25321 7.25231 4.25645 7.30426V7.30726L4.21745 7.31926V7.31326C4.21145 7.24726 4.20245 7.19926 4.09745 7.19926H3.95945V7.45726H4.07945C4.13945 7.45726 4.14845 7.42726 4.15445 7.37026V7.36726H4.19345V7.37026C4.18948 7.45021 4.18948 7.53031 4.19345 7.61026H4.19045L4.15445 7.61926V7.61326C4.14845 7.55326 4.14545 7.51726 4.07945 7.51726H3.95945V7.75126C3.95945 7.81126 4.01345 7.81126 4.07945 7.81126C4.20545 7.81126 4.25345 7.80526 4.28345 7.69126V7.68826H4.28945L4.31945 7.69726V7.70026C4.30654 7.75386 4.29553 7.80789 4.28645 7.86226V7.86826H4.28345ZM4.27745 7.85926L4.31045 7.70326L4.29245 7.69726C4.26245 7.81426 4.20245 7.82326 4.08245 7.82326C4.01645 7.82326 3.95345 7.82326 3.95045 7.75126V7.51126H4.07945C4.15145 7.50826 4.15745 7.55026 4.16345 7.61026L4.18445 7.60426C4.18046 7.52832 4.18046 7.45221 4.18445 7.37626H4.16345C4.15745 7.43026 4.13945 7.46626 4.07645 7.46626H3.95045V7.19026H4.10045C4.20545 7.19026 4.22045 7.24426 4.22645 7.31026L4.24745 7.30126C4.24527 7.25129 4.24527 7.20124 4.24745 7.15126L3.98945 7.15726L3.74045 7.15426V7.17526H3.74945C3.78545 7.17526 3.83045 7.18126 3.83045 7.23526V7.77526C3.83045 7.82926 3.78545 7.83526 3.74945 7.83526H3.74045V7.85926L4.00745 7.85326L4.27745 7.85926ZM4.45445 7.25926C4.45445 7.18126 4.41245 7.17826 4.38245 7.17826H4.36445V7.14826L4.52345 7.15126L4.68545 7.14826C4.81445 7.14826 4.92845 7.18426 4.92845 7.32826C4.92735 7.36942 4.91305 7.40913 4.88766 7.44154C4.86227 7.47395 4.82714 7.49734 4.78745 7.50826L4.96145 7.76926C4.97069 7.78775 4.98478 7.80338 5.00222 7.81448C5.01966 7.82558 5.03978 7.83172 5.06045 7.83226V7.86226L4.96145 7.85926L4.86545 7.86226C4.78793 7.75723 4.71776 7.64697 4.65545 7.53226H4.58645V7.75126C4.58645 7.82926 4.62245 7.83226 4.67045 7.83226H4.68845V7.86226L4.51145 7.85926L4.36145 7.86226V7.83226H4.38245C4.42145 7.83226 4.45445 7.81426 4.45445 7.77826V7.25626V7.25926ZM4.58645 7.49326H4.63445C4.73645 7.49326 4.79345 7.45426 4.79345 7.33426C4.79477 7.31422 4.7918 7.29413 4.78473 7.27533C4.77766 7.25653 4.76666 7.23946 4.75245 7.22525C4.73825 7.21105 4.72118 7.20005 4.70238 7.19298C4.68358 7.18591 4.66349 7.18294 4.64345 7.18426C4.62334 7.18504 4.6033 7.18705 4.58345 7.19026V7.49326H4.58645Z" fill="#1A1918"/>
<path d="M5.06047 7.86826L4.96147 7.86226C4.93147 7.86226 4.89847 7.86826 4.86247 7.86526C4.78502 7.76018 4.71486 7.64992 4.65247 7.53526H4.59247V7.75126C4.59247 7.82626 4.62247 7.82626 4.67047 7.82626H4.69147V7.86826H4.68847L4.51147 7.86226L4.36147 7.86826V7.82626H4.37947C4.41547 7.82626 4.44547 7.81126 4.44847 7.77826V7.25626C4.44847 7.18426 4.40947 7.18426 4.37947 7.18426H4.35547V7.14526H4.68247C4.81147 7.14526 4.93147 7.17826 4.93147 7.32826C4.92991 7.36929 4.91544 7.40878 4.89012 7.4411C4.8648 7.47342 4.82993 7.49692 4.79047 7.50826L4.96147 7.76926C4.97061 7.78696 4.98435 7.80186 5.00124 7.81242C5.01814 7.82298 5.03756 7.8288 5.05747 7.82926H5.06347V7.86826H5.06047ZM4.58647 7.52626H4.65547C4.7186 7.64049 4.78873 7.7507 4.86547 7.85626H5.05747V7.83526C5.03718 7.83471 5.01739 7.82888 5.00003 7.81837C4.98267 7.80785 4.96835 7.79299 4.95847 7.77526L4.77847 7.50526H4.78447C4.82392 7.49492 4.85897 7.4721 4.88439 7.4402C4.9098 7.4083 4.92421 7.36903 4.92547 7.32826C4.92547 7.18726 4.81447 7.15426 4.68547 7.15426H4.36747V7.17526H4.38247C4.41247 7.17526 4.46047 7.18126 4.46047 7.25626V7.77826C4.46047 7.81726 4.42147 7.83826 4.38247 7.83826H4.36747V7.85926L4.51147 7.85326L4.68247 7.85926V7.83826H4.67047C4.62247 7.83826 4.58047 7.83226 4.58047 7.74826V7.52626H4.58647ZM4.58647 7.49626H4.58047V7.18426H4.58347C4.60339 7.18203 4.62343 7.18103 4.64347 7.18126C4.6639 7.17994 4.68439 7.18299 4.70355 7.19021C4.72271 7.19743 4.74011 7.20866 4.75459 7.22314C4.76907 7.23762 4.7803 7.25502 4.78752 7.27418C4.79474 7.29335 4.79779 7.31383 4.79647 7.33426C4.79647 7.45426 4.73647 7.49926 4.63447 7.49926L4.58647 7.49626ZM4.63447 7.49026C4.73647 7.49026 4.78747 7.45426 4.78747 7.33426C4.7888 7.31501 4.78599 7.29569 4.77923 7.27762C4.77246 7.25954 4.7619 7.24313 4.74825 7.22948C4.7346 7.21583 4.71819 7.20527 4.70011 7.19851C4.68204 7.19174 4.66272 7.18893 4.64347 7.19026C4.62542 7.19004 4.60738 7.19104 4.58947 7.19326V7.49026H4.63447ZM5.75347 7.66126H5.75647V7.27426C5.75832 7.26175 5.75732 7.24897 5.75354 7.2369C5.74976 7.22482 5.74331 7.21376 5.73465 7.20453C5.726 7.1953 5.71537 7.18814 5.70357 7.18359C5.69176 7.17905 5.67908 7.17722 5.66647 7.17826H5.64547V7.14826L5.78947 7.15126L5.91547 7.14826V7.17826H5.89747C5.85547 7.17826 5.80747 7.18726 5.80747 7.31026V7.77526C5.80691 7.80937 5.80892 7.84346 5.81347 7.87726H5.77447L5.24947 7.28926V7.71226C5.24947 7.80226 5.26747 7.83226 5.34547 7.83226H5.36347V7.86226L5.23147 7.85926L5.09047 7.86226V7.83226H5.10547C5.17747 7.83226 5.19547 7.78426 5.19547 7.70326V7.27126C5.19547 7.25944 5.19314 7.24774 5.18862 7.23682C5.1841 7.2259 5.17747 7.21598 5.16911 7.20762C5.16075 7.19927 5.15083 7.19264 5.13991 7.18811C5.12899 7.18359 5.11729 7.18126 5.10547 7.18126H5.09047V7.14826L5.21047 7.15126L5.30047 7.14826L5.75347 7.66126Z" fill="#1A1918"/>
<path d="M5.81389 7.88334H5.77189L5.25289 7.30134V7.71234C5.25289 7.80234 5.26789 7.82634 5.34289 7.82634H5.36689V7.86834H5.36389L5.23189 7.86234L5.09089 7.86834H5.08789V7.82634H5.10589C5.17489 7.82634 5.19589 7.78434 5.19589 7.70334V7.27134C5.19589 7.24747 5.18641 7.22458 5.16953 7.2077C5.15265 7.19082 5.12976 7.18134 5.10589 7.18134H5.08789V7.14534H5.30089L5.75089 7.65234V7.27434C5.75089 7.19334 5.69689 7.18434 5.66689 7.18434H5.63989V7.14534H5.91889V7.18434H5.89789C5.85589 7.18434 5.81389 7.18734 5.81389 7.31034V7.77534C5.81319 7.80944 5.8152 7.84355 5.81989 7.87734V7.88334H5.81389ZM5.77489 7.87434H5.80789C5.80456 7.84145 5.80356 7.80837 5.80489 7.77534V7.31034C5.80489 7.18734 5.85589 7.17534 5.89789 7.17534H5.90989V7.15434H5.64889V7.17534H5.66689C5.68 7.17439 5.69316 7.17633 5.70544 7.18101C5.71772 7.1857 5.72883 7.19302 5.73798 7.20245C5.74713 7.21189 5.7541 7.22321 5.7584 7.23563C5.76271 7.24805 5.76424 7.26126 5.76289 7.27434V7.66434H5.75689V7.66734L5.30089 7.15434H5.09689V7.17534H5.10589C5.13135 7.17534 5.15577 7.18545 5.17377 7.20346C5.19178 7.22146 5.20189 7.24588 5.20189 7.27134V7.70334C5.20189 7.78434 5.18089 7.83534 5.10589 7.83834H5.09689V7.85934L5.23189 7.85334L5.35789 7.85934V7.83834H5.34589C5.26489 7.83834 5.24389 7.80234 5.24389 7.71234V7.28034L5.77489 7.87434ZM5.75389 7.66134L5.75689 7.65834V7.66134H5.75389ZM6.07789 7.71534C6.06817 7.74156 6.06114 7.7687 6.05689 7.79634C6.05689 7.82634 6.09889 7.83234 6.13189 7.83234H6.14389V7.86234C6.06594 7.8584 5.98784 7.8584 5.90989 7.86234V7.83234H5.91589C5.93613 7.83307 5.95602 7.82695 5.97236 7.81497C5.98869 7.803 6.0005 7.78586 6.00589 7.76634L6.16789 7.29534C6.18409 7.2544 6.19713 7.21227 6.20689 7.16934C6.23828 7.15729 6.26842 7.14222 6.29689 7.12434C6.30083 7.12332 6.30496 7.12332 6.30889 7.12434C6.3098 7.12381 6.31084 7.12354 6.31189 7.12354C6.31294 7.12354 6.31398 7.12381 6.31489 7.12434L6.32389 7.15434L6.51289 7.68834L6.54889 7.79034C6.55412 7.80399 6.56373 7.81553 6.57621 7.82313C6.5887 7.83073 6.60336 7.83397 6.61789 7.83234H6.62389V7.86234C6.52595 7.85736 6.42783 7.85736 6.32989 7.86234V7.83234H6.33889C6.36289 7.83234 6.40489 7.82934 6.40489 7.80234C6.40088 7.7766 6.39383 7.75142 6.38389 7.72734L6.34189 7.60734H6.11089L6.08089 7.71534H6.07789ZM6.22789 7.26534L6.13189 7.55334H6.32089L6.22789 7.26234V7.26534Z" fill="#1A1918"/>
<path d="M6.62332 7.86827L6.47932 7.85927L6.32632 7.86527H6.32032V7.82327H6.33532C6.35932 7.82327 6.39532 7.82027 6.39532 7.79927C6.39108 7.77455 6.38403 7.7504 6.37432 7.72727L6.33532 7.61027H6.11032L6.08032 7.71527C6.06983 7.74044 6.06179 7.76656 6.05632 7.79327C6.05632 7.81727 6.09532 7.82327 6.12832 7.82327H6.14632V7.86527H6.14032L6.01732 7.85927L5.90632 7.86527H5.90332V7.82327H5.91232C5.93079 7.8231 5.94875 7.81725 5.96378 7.80651C5.9788 7.79578 5.99017 7.78068 5.99632 7.76327L6.16132 7.29227C6.1768 7.24905 6.18982 7.20498 6.20032 7.16027C6.23261 7.14933 6.26376 7.13526 6.29332 7.11827C6.29612 7.11675 6.29917 7.11573 6.30232 7.11527C6.30469 7.11497 6.3071 7.11537 6.30924 7.11644C6.31138 7.11751 6.31315 7.11919 6.31432 7.12127L6.32332 7.14827L6.51232 7.68227C6.52432 7.71827 6.53632 7.75727 6.55132 7.78727C6.5563 7.7988 6.56477 7.80847 6.57553 7.81493C6.58629 7.82138 6.59881 7.8243 6.61132 7.82327H6.62332V7.86527H6.62032L6.62332 7.86827ZM6.32932 7.85927L6.47932 7.85327L6.61432 7.85927V7.83827C6.59902 7.83987 6.58362 7.83631 6.57058 7.82816C6.55753 7.82001 6.54759 7.80773 6.54232 7.79327C6.52732 7.76327 6.51532 7.72427 6.50332 7.68827L6.31732 7.15427L6.30832 7.12727H6.30232C6.30132 7.12721 6.30032 7.12721 6.29932 7.12727C6.2713 7.14517 6.24104 7.15929 6.20932 7.16927C6.19976 7.21324 6.18672 7.25637 6.17032 7.29827L6.00532 7.76627C6.00013 7.7864 5.98856 7.8043 5.97233 7.81728C5.9561 7.83027 5.93609 7.83763 5.91532 7.83827H5.91232V7.85927L6.01732 7.85327L6.13732 7.85927V7.83827H6.12832C6.09832 7.83827 6.05032 7.83227 6.04732 7.79627C6.05247 7.76851 6.06052 7.74136 6.07132 7.71527L6.10432 7.60727H6.34432L6.38332 7.72727C6.39343 7.7513 6.40048 7.77649 6.40432 7.80227C6.40432 7.83227 6.35932 7.83527 6.33532 7.83827H6.32932V7.85927ZM6.11932 7.55927L6.21832 7.25927H6.22732L6.32332 7.55927H6.11932ZM6.13432 7.54727H6.31432L6.22432 7.27427L6.13432 7.54727ZM6.66832 7.19927C6.59032 7.19927 6.58732 7.21727 6.57232 7.29227H6.54232L6.55432 7.20527C6.55833 7.17645 6.56033 7.14738 6.56032 7.11827H6.58432C6.59332 7.14827 6.61732 7.14827 6.64432 7.14827H7.17232C7.20232 7.14827 7.22632 7.14827 7.22932 7.11827H7.25332L7.24132 7.20227V7.28627L7.21132 7.29827C7.20532 7.25927 7.20232 7.19927 7.13332 7.19927H6.96532V7.74527C6.96532 7.82327 7.00132 7.83227 7.04932 7.83227H7.07032V7.86227L6.89932 7.85927L6.72832 7.86227V7.83227H6.74632C6.80332 7.83227 6.83332 7.82627 6.83332 7.74527V7.19927H6.66532" fill="#1A1918"/>
<path d="M7.0702 7.8683L6.8992 7.8593L6.7282 7.8653H6.7222V7.8233H6.7462C6.8032 7.8233 6.8272 7.8233 6.8272 7.7423V7.2023H6.6652V7.1933H6.8362V7.7423C6.8362 7.8263 6.8032 7.8323 6.7462 7.8323H6.7312V7.8593L6.8992 7.8533L7.0612 7.8593V7.8383H7.0462C6.9982 7.8383 6.9562 7.8233 6.9562 7.7453V7.1963H7.1302C7.1992 7.1963 7.2082 7.2563 7.2082 7.2923L7.2322 7.2833V7.2023L7.2442 7.1243H7.2292C7.2232 7.1543 7.1962 7.1543 7.1692 7.1543H6.6382C6.6142 7.1543 6.5872 7.1543 6.5782 7.1243H6.5602C6.56004 7.15141 6.55803 7.17847 6.5542 7.2053C6.5542 7.2353 6.5482 7.2623 6.5422 7.2893H6.5662C6.5782 7.2173 6.5872 7.1933 6.6652 7.1963V7.2053C6.5872 7.2053 6.5902 7.2173 6.5752 7.2953H6.5332V7.2923L6.5452 7.2053C6.54933 7.17649 6.55134 7.14741 6.5512 7.1183V7.1153H6.5842C6.5932 7.1453 6.6142 7.1453 6.6382 7.1453H7.1692C7.1992 7.1453 7.2202 7.1453 7.2202 7.1153V7.1123H7.2262L7.2562 7.1183V7.1213L7.2412 7.2053V7.2893H7.2382L7.2022 7.3043V7.2983C7.1992 7.2593 7.1932 7.2053 7.1302 7.2053H6.9682V7.7453C6.9682 7.8203 6.9982 7.8263 7.0462 7.8263H7.0702V7.8683H7.0672H7.0702ZM7.2892 7.8323H7.3042C7.3402 7.8323 7.3792 7.8263 7.3792 7.7723V7.2383C7.3792 7.1843 7.3402 7.1783 7.3042 7.1783H7.2892V7.1483L7.4392 7.1513L7.6012 7.1483V7.1783H7.5862C7.5502 7.1783 7.5112 7.1843 7.5112 7.2383V7.7753C7.5112 7.8263 7.5502 7.8323 7.5862 7.8323H7.6012V7.8623L7.4392 7.8593L7.2892 7.8623V7.8323Z" fill="#1A1918"/>
<path d="M7.60162 7.86834L7.43962 7.85933L7.28962 7.86534H7.28662V7.82333H7.30462C7.34062 7.82333 7.37662 7.82333 7.37662 7.77233V7.23233C7.37662 7.18433 7.34062 7.18133 7.30462 7.18133H7.28662V7.14234H7.60762V7.18133H7.58662C7.55062 7.18133 7.51762 7.18433 7.51762 7.23533V7.77233C7.51762 7.82033 7.54762 7.82333 7.58662 7.82333H7.60762V7.86534L7.60162 7.86834ZM7.59862 7.85933V7.83834H7.58662C7.55062 7.83834 7.50862 7.82933 7.50862 7.77533V7.23533C7.50862 7.18133 7.55062 7.17533 7.58662 7.17533H7.59862V7.15433H7.28962V7.17533H7.30162C7.33762 7.17533 7.38262 7.18133 7.38262 7.23533V7.77533C7.38262 7.82933 7.33762 7.83534 7.30162 7.83534H7.29262V7.85933L7.43662 7.85333L7.59562 7.85933H7.59862ZM8.00962 7.13333C8.05886 7.12921 8.10841 7.13527 8.15521 7.15113C8.202 7.16699 8.24503 7.19231 8.28161 7.22552C8.31819 7.25872 8.34755 7.29911 8.36785 7.34415C8.38816 7.38919 8.39897 7.43793 8.39962 7.48734C8.40169 7.5386 8.39322 7.58973 8.37473 7.63759C8.35624 7.68544 8.32813 7.729 8.29214 7.76555C8.25615 7.80211 8.21303 7.83089 8.16547 7.85012C8.11791 7.86934 8.06691 7.87861 8.01562 7.87733C7.96586 7.88067 7.91594 7.87363 7.86904 7.85665C7.82214 7.83968 7.77928 7.81314 7.74318 7.77873C7.70708 7.74432 7.67852 7.70278 7.65931 7.65675C7.64011 7.61072 7.63068 7.5612 7.63162 7.51134C7.63081 7.46147 7.64003 7.41195 7.65874 7.36573C7.67745 7.3195 7.70526 7.27751 7.74053 7.24224C7.77579 7.20698 7.81779 7.17917 7.86401 7.16046C7.91024 7.14175 7.95976 7.13252 8.00962 7.13333ZM8.02462 7.83233C8.22262 7.83233 8.25862 7.65833 8.25862 7.50833C8.25862 7.35833 8.17762 7.17833 8.00662 7.17833C7.82662 7.17833 7.77562 7.33733 7.77562 7.47533C7.77562 7.65533 7.85962 7.83534 8.02462 7.83534" fill="#1A1918"/>
<path d="M7.62855 7.51128C7.62775 7.46088 7.63703 7.41084 7.65586 7.36408C7.67469 7.31733 7.70267 7.27481 7.73817 7.23903C7.77367 7.20325 7.81597 7.17493 7.86257 7.15574C7.90918 7.13655 7.95915 7.12687 8.00955 7.12728V7.13628C7.96033 7.13587 7.91153 7.14532 7.86602 7.16405C7.8205 7.18279 7.7792 7.21045 7.74453 7.24539C7.70987 7.28034 7.68255 7.32186 7.66417 7.36752C7.6458 7.41319 7.63675 7.46206 7.63755 7.51128C7.63706 7.56023 7.64663 7.60877 7.66569 7.65386C7.68475 7.69896 7.71287 7.73965 7.74833 7.77341C7.78378 7.80718 7.82579 7.83329 7.87177 7.85012C7.91774 7.86696 7.96668 7.87416 8.01555 7.87128C8.06618 7.87253 8.11653 7.86343 8.16352 7.84454C8.21051 7.82564 8.25315 7.79735 8.28882 7.7614C8.32449 7.72545 8.35245 7.68259 8.37097 7.63546C8.3895 7.58832 8.3982 7.5379 8.39655 7.48728C8.39639 7.43785 8.38588 7.38901 8.3657 7.34389C8.34551 7.29877 8.3161 7.25838 8.27937 7.22532C8.24263 7.19225 8.19937 7.16725 8.15239 7.15191C8.1054 7.13658 8.05572 7.13125 8.00655 7.13628V7.12728C8.05691 7.12226 8.10775 7.12782 8.15583 7.14362C8.20391 7.15941 8.24815 7.18508 8.28572 7.21897C8.32329 7.25287 8.35336 7.29425 8.374 7.34046C8.39464 7.38666 8.40538 7.43667 8.40555 7.48728C8.40762 7.53933 8.39899 7.59125 8.3802 7.63983C8.36141 7.68841 8.33286 7.73262 8.29631 7.76973C8.25976 7.80685 8.21599 7.83607 8.1677 7.8556C8.11941 7.87513 8.06763 7.88455 8.01555 7.88328C7.965 7.88661 7.9143 7.87941 7.86668 7.86213C7.81905 7.84486 7.77553 7.81788 7.73887 7.78291C7.70221 7.74794 7.67321 7.70574 7.6537 7.65899C7.6342 7.61223 7.62461 7.56193 7.62555 7.51128M7.76955 7.47528C7.76955 7.33728 7.82355 7.17528 8.00955 7.17528C8.18055 7.17528 8.26155 7.35828 8.26155 7.50828C8.26155 7.65828 8.22555 7.83828 8.02455 7.83828V7.82928C8.21955 7.82928 8.25255 7.65828 8.25255 7.50828C8.25255 7.35828 8.17455 7.18428 8.00655 7.18128C7.83255 7.18128 7.78155 7.33728 7.77855 7.47528C7.77855 7.65528 7.86255 7.82928 8.02455 7.82928V7.83828C7.85655 7.83828 7.77255 7.65828 7.76955 7.47528ZM9.08955 7.66128V7.27428C9.0914 7.26176 9.0904 7.24899 9.08662 7.23691C9.08285 7.22484 9.07639 7.21377 9.06774 7.20454C9.05908 7.19531 9.04846 7.18816 9.03665 7.18361C9.02484 7.17906 9.01216 7.17724 8.99955 7.17828H8.97855V7.14828L9.12255 7.15128L9.24855 7.14828V7.17828H9.23355C9.18855 7.17828 9.14355 7.18728 9.14355 7.31028V7.77528C9.14192 7.8093 9.14292 7.84341 9.14655 7.87728H9.11055L8.57955 7.28928V7.71228C8.57955 7.80228 8.59755 7.83228 8.67555 7.83228H8.69355V7.86228L8.56155 7.85928L8.42355 7.86228V7.83228H8.43855C8.50755 7.83228 8.52855 7.78428 8.52855 7.70328V7.27128C8.52855 7.25946 8.52622 7.24776 8.5217 7.23684C8.51718 7.22592 8.51055 7.216 8.50219 7.20764C8.49383 7.19928 8.48391 7.19265 8.47299 7.18813C8.46207 7.18361 8.45037 7.18128 8.43855 7.18128H8.42355V7.14828L8.54055 7.15128L8.63055 7.14828L9.08655 7.66128" fill="#1A1918"/>
<path d="M9.1499 7.88334H9.1049L8.5889 7.30134V7.71234C8.5889 7.80234 8.6039 7.82634 8.6789 7.82634H8.6999V7.86834H8.6969L8.5649 7.86234L8.4269 7.86834H8.4209V7.82634H8.4419C8.5079 7.82634 8.5259 7.78434 8.5289 7.70334V7.27134C8.5289 7.24747 8.51942 7.22458 8.50254 7.2077C8.48566 7.19082 8.46277 7.18134 8.4389 7.18134H8.4209V7.14534H8.6369L9.0869 7.65234V7.27434C9.0869 7.19334 9.0329 7.18434 9.0029 7.18434H8.9729V7.14534H9.2549V7.18434H9.2369C9.1949 7.18434 9.1499 7.18734 9.1469 7.31034V7.77534C9.14732 7.80952 9.15033 7.84361 9.1559 7.87734V7.88334H9.1499ZM9.1109 7.87434H9.1409C9.13765 7.84145 9.13664 7.80837 9.1379 7.77534V7.31034C9.1379 7.18734 9.1889 7.17534 9.2339 7.17534H9.2429V7.15434H8.9849V7.17534H9.0029C9.01551 7.17528 9.028 7.17787 9.03955 7.18294C9.0511 7.18802 9.06146 7.19546 9.06994 7.2048C9.07843 7.21413 9.08486 7.22515 9.08881 7.23713C9.09277 7.24911 9.09416 7.26179 9.0929 7.27434V7.66434L9.0899 7.66734L8.6339 7.15434H8.4299V7.17534H8.4389C8.45176 7.17494 8.46456 7.17712 8.47656 7.18177C8.48855 7.18641 8.49949 7.19342 8.50873 7.20237C8.51796 7.21133 8.5253 7.22205 8.53031 7.23389C8.53533 7.24574 8.53791 7.25848 8.5379 7.27134V7.70334C8.5379 7.78434 8.5139 7.83534 8.4419 7.83834H8.4299V7.85934L8.5649 7.85334L8.6939 7.85934V7.83834H8.6789C8.5979 7.83834 8.5799 7.80234 8.5799 7.71234V7.28034L9.1109 7.87434ZM9.4139 7.71534C9.40325 7.74148 9.39521 7.76862 9.3899 7.79634C9.3899 7.82634 9.4319 7.83234 9.4679 7.83234H9.4769V7.86234C9.39895 7.85839 9.32085 7.85839 9.2429 7.86234V7.83234H9.2489C9.26914 7.83307 9.28903 7.82695 9.30536 7.81497C9.3217 7.803 9.33351 7.78586 9.3389 7.76634L9.5039 7.29534C9.51917 7.25434 9.53121 7.21222 9.5399 7.16934C9.5723 7.15743 9.60345 7.14236 9.6329 7.12434C9.63586 7.12369 9.63893 7.12369 9.6419 7.12434C9.64281 7.12381 9.64385 7.12354 9.6449 7.12354C9.64595 7.12354 9.64699 7.12381 9.6479 7.12434L9.6569 7.15434L9.8459 7.68834C9.8579 7.72134 9.8699 7.76034 9.8849 7.79034C9.88998 7.80346 9.89913 7.81462 9.91101 7.82217C9.92288 7.82973 9.93686 7.83329 9.9509 7.83234H9.9569V7.86234C9.85896 7.85736 9.76084 7.85736 9.6629 7.86234V7.83234H9.6749C9.6989 7.83234 9.7349 7.82934 9.7349 7.80234C9.73185 7.77672 9.72581 7.75155 9.7169 7.72734L9.6779 7.60734H9.4439L9.4139 7.71534ZM9.5639 7.26534H9.5609L9.4649 7.55334H9.6569L9.5609 7.26234L9.5639 7.26534Z" fill="#1A1918"/>
<path d="M9.95633 7.86831L9.81533 7.86231L9.66533 7.86831H9.65933V7.82631H9.67433C9.69833 7.82631 9.73433 7.82331 9.73433 7.80231C9.73019 7.77756 9.72314 7.75339 9.71333 7.73031L9.67433 7.61331H9.44633L9.41633 7.71831C9.40691 7.74359 9.39988 7.76971 9.39533 7.79631C9.39533 7.82031 9.43133 7.82631 9.46733 7.82631H9.47933V7.86831H9.47333L9.35333 7.86231L9.23933 7.86831H9.23633V7.82631H9.24533C9.2643 7.82676 9.28294 7.8212 9.29856 7.81042C9.31419 7.79964 9.32601 7.7842 9.33233 7.76631L9.49433 7.29531C9.5107 7.2521 9.52472 7.20803 9.53633 7.16331C9.56752 7.15202 9.59764 7.13797 9.62633 7.12131C9.63026 7.12029 9.63439 7.12029 9.63833 7.12131C9.64041 7.12067 9.64263 7.12061 9.64474 7.12114C9.64686 7.12167 9.64879 7.12276 9.65033 7.12431L9.65933 7.15131L9.84533 7.68531C9.85733 7.72131 9.86933 7.76031 9.88433 7.79031C9.88931 7.80183 9.89777 7.8115 9.90854 7.81796C9.9193 7.82442 9.93182 7.82734 9.94433 7.82631H9.95633V7.86831ZM9.66533 7.85931L9.81533 7.85331L9.95333 7.85931V7.83531H9.95033C9.93539 7.83711 9.92027 7.83399 9.90727 7.82641C9.89427 7.81882 9.88411 7.8072 9.87833 7.79331L9.84233 7.68831L9.65333 7.15431C9.65021 7.14535 9.64721 7.13635 9.64433 7.12731H9.64133C9.63934 7.12697 9.63731 7.12697 9.63533 7.12731C9.60724 7.14508 9.577 7.1592 9.54533 7.16931C9.53564 7.21324 9.5226 7.25636 9.50633 7.29831L9.34133 7.76631C9.33614 7.78643 9.32456 7.80433 9.30834 7.81732C9.29211 7.8303 9.2721 7.83766 9.25133 7.83831H9.24833V7.85931L9.35333 7.85331L9.47333 7.85931V7.83831H9.46733C9.43433 7.83831 9.38633 7.83231 9.38633 7.79631C9.39065 7.76868 9.39769 7.74155 9.40733 7.71531L9.44033 7.60731H9.68033L9.71933 7.72731C9.72935 7.75136 9.7364 7.77655 9.74033 7.80231C9.74033 7.83231 9.69533 7.83531 9.67433 7.83831H9.66533V7.85931ZM9.45533 7.55931L9.55733 7.25931H9.56333L9.66233 7.55931H9.45533ZM9.47033 7.54731H9.65033L9.56033 7.27431L9.47033 7.54731ZM10.2143 7.76331C10.2143 7.80231 10.2443 7.81731 10.2743 7.82031C10.3192 7.82441 10.3644 7.82441 10.4093 7.82031C10.4291 7.8177 10.4481 7.81102 10.4651 7.80069C10.4822 7.79036 10.4969 7.77661 10.5083 7.76031C10.5223 7.73815 10.5324 7.71382 10.5383 7.68831H10.5683L10.5323 7.86231L10.2623 7.85931L9.99233 7.86231V7.83231H10.0073C10.0433 7.83231 10.0823 7.82631 10.0823 7.76331V7.23831C10.0823 7.18431 10.0433 7.17831 10.0073 7.17831H9.99233V7.14831L10.1543 7.15131L10.3073 7.14831V7.17831H10.2833C10.2443 7.17831 10.2143 7.17831 10.2143 7.23531V7.76331Z" fill="#1A1918"/>
<path d="M10.5293 7.86827L10.2593 7.86227L9.98933 7.86827V7.82627H10.0073C10.0433 7.82627 10.0793 7.82627 10.0793 7.76627V7.23827C10.0793 7.18727 10.0433 7.18427 10.0073 7.18427H9.98633V7.14527H10.3133V7.18427H10.2833C10.2443 7.18427 10.2203 7.18427 10.2173 7.23527V7.76327C10.2173 7.80227 10.2443 7.81127 10.2773 7.81427L10.3313 7.81727C10.3574 7.81765 10.3834 7.81664 10.4093 7.81427C10.4472 7.8097 10.4817 7.79028 10.5053 7.76027C10.5193 7.73814 10.5295 7.7138 10.5353 7.68827V7.68527H10.5743V7.69127L10.5353 7.86527L10.5293 7.86827ZM10.5293 7.85927L10.5623 7.69427H10.5413C10.5355 7.7198 10.5253 7.74414 10.5113 7.76627C10.499 7.78211 10.4836 7.79532 10.4661 7.80511C10.4486 7.8149 10.4293 7.82108 10.4093 7.82327C10.3834 7.82557 10.3574 7.82657 10.3313 7.82627H10.2743C10.2413 7.82027 10.2083 7.80527 10.2083 7.76327V7.23527C10.2083 7.17527 10.2443 7.17527 10.2833 7.17527H10.3043V7.15427H9.99533V7.17527H10.0073C10.0433 7.17527 10.0883 7.18127 10.0883 7.23527V7.76327C10.0883 7.82927 10.0433 7.83527 10.0073 7.83527H9.99533V7.85927L10.2623 7.85327L10.5263 7.85927H10.5293ZM10.5593 7.11827C10.5806 7.11886 10.6011 7.12569 10.6185 7.13791C10.6359 7.15013 10.6492 7.1672 10.6569 7.18698C10.6647 7.20675 10.6664 7.22837 10.6619 7.24912C10.6574 7.26987 10.6469 7.28883 10.6316 7.30363C10.6164 7.31844 10.5972 7.32843 10.5763 7.33236C10.5555 7.33629 10.5339 7.33398 10.5143 7.32573C10.4948 7.31747 10.4781 7.30364 10.4663 7.28595C10.4546 7.26826 10.4483 7.2475 10.4483 7.22627C10.4479 7.21197 10.4504 7.19774 10.4557 7.18445C10.461 7.17116 10.4689 7.15909 10.479 7.14898C10.4892 7.13887 10.5012 7.13093 10.5145 7.12564C10.5278 7.12036 10.542 7.11785 10.5563 7.11827H10.5593ZM10.5593 7.31627C10.5771 7.31627 10.5945 7.31099 10.6093 7.3011C10.6241 7.29121 10.6357 7.27716 10.6425 7.26071C10.6493 7.24427 10.6511 7.22617 10.6476 7.20871C10.6441 7.19125 10.6356 7.17522 10.623 7.16263C10.6104 7.15004 10.5943 7.14147 10.5769 7.138C10.5594 7.13453 10.5413 7.13631 10.5249 7.14312C10.5084 7.14993 10.4944 7.16147 10.4845 7.17627C10.4746 7.19107 10.4693 7.20847 10.4693 7.22627C10.4689 7.2382 10.471 7.25009 10.4753 7.2612C10.4797 7.27231 10.4863 7.2824 10.4948 7.29084C10.5032 7.29928 10.5133 7.3059 10.5244 7.31027C10.5355 7.31465 10.5474 7.31669 10.5593 7.31627ZM10.5023 7.28627V7.28027C10.5173 7.27727 10.5173 7.28027 10.5173 7.26827V7.19027C10.5173 7.17827 10.5173 7.17527 10.5023 7.17527V7.16927H10.5593C10.5773 7.16927 10.5953 7.17827 10.5953 7.19927C10.5948 7.20655 10.5918 7.21345 10.5869 7.21888C10.5821 7.22431 10.5755 7.22796 10.5683 7.22927L10.5863 7.25627C10.5931 7.26542 10.6012 7.27351 10.6103 7.28027V7.28327H10.5893C10.5803 7.28327 10.5713 7.26227 10.5503 7.23527H10.5383V7.27127C10.5383 7.27727 10.5413 7.27727 10.5563 7.28027V7.28327L10.5023 7.28627ZM10.5383 7.22627H10.5533C10.5653 7.22627 10.5713 7.21727 10.5713 7.19927C10.5713 7.18127 10.5623 7.17527 10.5503 7.17527H10.5383V7.22627Z" fill="#1A1918"/>
<path d="M4.17871 3.53336C4.17931 3.191 4.28141 2.8565 4.47211 2.57217C4.66281 2.28784 4.93353 2.06644 5.25006 1.93598C5.56659 1.80551 5.91469 1.77184 6.25035 1.83921C6.58602 1.90658 6.89417 2.07198 7.13583 2.31448C7.3775 2.55698 7.54182 2.8657 7.60803 3.2016C7.67424 3.5375 7.63936 3.88548 7.5078 4.20155C7.37623 4.51763 7.1539 4.78759 6.86891 4.9773C6.58392 5.16701 6.24907 5.26795 5.90671 5.26736C5.6794 5.26696 5.45438 5.2218 5.24452 5.13445C5.03465 5.04709 4.84405 4.91926 4.68359 4.75824C4.52313 4.59722 4.39596 4.40618 4.30933 4.19601C4.2227 3.98585 4.17832 3.76068 4.17871 3.53336Z" fill="white"/>
<path d="M6.95361 3.50035C6.95314 3.28976 6.88899 3.08424 6.7696 2.91077C6.6502 2.7373 6.48114 2.60399 6.28461 2.52835V4.47235C6.48114 4.39671 6.6502 4.2634 6.7696 4.08993C6.88899 3.91646 6.95314 3.71093 6.95361 3.50035ZM5.54361 4.47235V2.52835C5.34696 2.60374 5.17781 2.73701 5.05849 2.91055C4.93917 3.08409 4.8753 3.28974 4.8753 3.50035C4.8753 3.71095 4.93917 3.9166 5.05849 4.09014C5.17781 4.26368 5.34696 4.39695 5.54361 4.47235ZM5.90961 1.85935C5.58433 1.85875 5.26618 1.95467 4.99543 2.13495C4.72468 2.31524 4.5135 2.57179 4.38861 2.87213C4.26372 3.17248 4.23074 3.50313 4.29383 3.82223C4.35693 4.14133 4.51326 4.43455 4.74306 4.66477C4.97286 4.89498 5.26579 5.05186 5.58477 5.11553C5.90376 5.17921 6.23447 5.14683 6.53504 5.02249C6.83562 4.89815 7.09255 4.68743 7.27333 4.41702C7.45411 4.1466 7.55061 3.82863 7.55061 3.50335C7.551 3.28785 7.50895 3.07438 7.42684 2.87513C7.34474 2.67589 7.22419 2.49476 7.07209 2.34211C6.91999 2.18945 6.73931 2.06824 6.54036 1.98541C6.34142 1.90258 6.12811 1.85974 5.91261 1.85935H5.90961ZM5.90961 5.30335C5.43353 5.30654 4.97563 5.12068 4.63646 4.78658C4.29729 4.45247 4.10457 3.99742 4.10061 3.52135C4.09487 3.28208 4.13771 3.04413 4.22655 2.82189C4.3154 2.59965 4.44839 2.39774 4.61748 2.22836C4.78658 2.05899 4.98827 1.92566 5.21036 1.83645C5.43245 1.74725 5.67033 1.704 5.90961 1.70935H6.37461C6.61668 1.70377 6.85745 1.7463 7.08297 1.83445C7.30849 1.92261 7.51427 2.05464 7.68839 2.2229C7.86252 2.39116 8.00151 2.59231 8.09733 2.81468C8.19315 3.03705 8.24389 3.27623 8.24661 3.51835C8.22493 3.99958 8.01798 4.45378 7.66907 4.78591C7.32016 5.11805 6.85632 5.30238 6.37461 5.30035L5.90961 5.30335Z" fill="#154A78"/>
</g>
<defs>
<clipPath id="clip0_11861_35298">
<rect width="12" height="7.8" fill="white" transform="translate(0.179688 0.959351)"/>
</clipPath>
</defs>
</svg>
