<svg width="14" height="10" viewBox="0 0 14 10" fill="none" xmlns="http://www.w3.org/2000/svg">
<g clip-path="url(#clip0_11861_35282)">
<path d="M0.164062 2.35938C0.164063 1.96155 0.322098 1.58002 0.603402 1.29871C0.884707 1.01741 1.26624 0.859375 1.66406 0.859375L12.1641 0.859375C12.5619 0.859375 12.9434 1.01741 13.2247 1.29871C13.506 1.58002 13.6641 1.96155 13.6641 2.35938V8.35938C13.6641 8.7572 13.506 9.13873 13.2247 9.42004C12.9434 9.70134 12.5619 9.85938 12.1641 9.85938H1.66406C1.26624 9.85938 0.884707 9.70134 0.603402 9.42004C0.322098 9.13873 0.164063 8.7572 0.164063 8.35938L0.164062 2.35938Z" fill="#E6E9EB"/>
<path d="M2.16406 6.85938H11.6641V7.85938H2.16406V6.85938Z" fill="#B9C4C9"/>
<path d="M3.66406 2.85938H2.66406C2.38792 2.85938 2.16406 3.08323 2.16406 3.35938V4.35938C2.16406 4.63552 2.38792 4.85938 2.66406 4.85938H3.66406C3.9402 4.85938 4.16406 4.63552 4.16406 4.35938V3.35938C4.16406 3.08323 3.9402 2.85938 3.66406 2.85938Z" fill="white"/>
</g>
<defs>
<clipPath id="clip0_11861_35282">
<rect width="13.5" height="9" fill="white" transform="translate(0.164062 0.859375)"/>
</clipPath>
</defs>
</svg>
