<svg width="133" height="24" viewBox="0 0 133 24" fill="none" xmlns="http://www.w3.org/2000/svg">
<path d="M17.5 4H6.25C4.98438 4 4 5.01953 4 6.25V17.5C4 18.7656 4.98438 19.75 6.25 19.75H17.5C18.7305 19.75 19.75 18.7656 19.75 17.5V6.25C19.75 5.01953 18.7305 4 17.5 4ZM11.875 16.9375C11.2422 16.9375 10.75 16.4453 10.75 15.8125C10.75 15.1797 11.207 14.6875 11.875 14.6875C12.4727 14.6875 13 15.1797 13 15.8125C13 16.4453 12.4727 16.9375 11.875 16.9375ZM14.3008 11.9453L12.7188 12.9297V13C12.7188 13.457 12.332 13.8438 11.875 13.8438C11.418 13.8438 11.0312 13.457 11.0312 13V12.4375C11.0312 12.1562 11.1719 11.875 11.4531 11.6992L13.457 10.5039C13.7031 10.3633 13.8438 10.1172 13.8438 9.83594C13.8438 9.41406 13.4922 9.0625 13.0703 9.0625H11.2422C10.7852 9.0625 10.4688 9.41406 10.4688 9.83594C10.4688 10.293 10.082 10.6797 9.625 10.6797C9.16797 10.6797 8.78125 10.293 8.78125 9.83594C8.78125 8.46484 9.87109 7.375 11.207 7.375H13.0352C14.4414 7.375 15.5312 8.46484 15.5312 9.83594C15.5312 10.6797 15.0742 11.4883 14.3008 11.9453Z" fill="#8F8F8F"/>
<path d="M35.502 16.598C34.5967 16.598 33.7707 16.388 33.024 15.968C32.2773 15.5387 31.6847 14.946 31.246 14.19C30.8167 13.4247 30.602 12.566 30.602 11.614C30.602 10.662 30.8167 9.808 31.246 9.052C31.6847 8.28667 32.2773 7.694 33.024 7.274C33.7707 6.84467 34.5967 6.63 35.502 6.63C36.4167 6.63 37.2473 6.84467 37.994 7.274C38.7407 7.694 39.3287 8.282 39.758 9.038C40.1873 9.794 40.402 10.6527 40.402 11.614C40.402 12.5753 40.1873 13.434 39.758 14.19C39.3287 14.946 38.7407 15.5387 37.994 15.968C37.2473 16.388 36.4167 16.598 35.502 16.598ZM35.502 15.492C36.1833 15.492 36.7947 15.3333 37.336 15.016C37.8867 14.6987 38.316 14.246 38.624 13.658C38.9413 13.07 39.1 12.3887 39.1 11.614C39.1 10.83 38.9413 10.1487 38.624 9.57C38.316 8.982 37.8913 8.52933 37.35 8.212C36.8087 7.89467 36.1927 7.736 35.502 7.736C34.8113 7.736 34.1953 7.89467 33.654 8.212C33.1127 8.52933 32.6833 8.982 32.366 9.57C32.058 10.1487 31.904 10.83 31.904 11.614C31.904 12.3887 32.058 13.07 32.366 13.658C32.6833 14.246 33.1127 14.6987 33.654 15.016C34.2047 15.3333 34.8207 15.492 35.502 15.492ZM43.2179 10.074C43.4419 9.63533 43.7592 9.29467 44.1699 9.052C44.5899 8.80933 45.0985 8.688 45.6959 8.688V10.004H45.3599C43.9319 10.004 43.2179 10.7787 43.2179 12.328V16.5H41.9439V8.828H43.2179V10.074ZM46.5505 12.636C46.5505 11.852 46.7092 11.166 47.0265 10.578C47.3438 9.98067 47.7778 9.51867 48.3285 9.192C48.8885 8.86533 49.5138 8.702 50.2045 8.702C50.8018 8.702 51.3572 8.842 51.8705 9.122C52.3838 9.39267 52.7758 9.752 53.0465 10.2V6.14H54.3345V16.5H53.0465V15.058C52.7945 15.5153 52.4212 15.8933 51.9265 16.192C51.4318 16.4813 50.8532 16.626 50.1905 16.626C49.5092 16.626 48.8885 16.458 48.3285 16.122C47.7778 15.786 47.3438 15.3147 47.0265 14.708C46.7092 14.1013 46.5505 13.4107 46.5505 12.636ZM53.0465 12.65C53.0465 12.0713 52.9298 11.5673 52.6965 11.138C52.4632 10.7087 52.1458 10.382 51.7445 10.158C51.3525 9.92467 50.9185 9.808 50.4425 9.808C49.9665 9.808 49.5325 9.92 49.1405 10.144C48.7485 10.368 48.4358 10.6947 48.2025 11.124C47.9692 11.5533 47.8525 12.0573 47.8525 12.636C47.8525 13.224 47.9692 13.7373 48.2025 14.176C48.4358 14.6053 48.7485 14.9367 49.1405 15.17C49.5325 15.394 49.9665 15.506 50.4425 15.506C50.9185 15.506 51.3525 15.394 51.7445 15.17C52.1458 14.9367 52.4632 14.6053 52.6965 14.176C52.9298 13.7373 53.0465 13.2287 53.0465 12.65ZM63.3475 12.37C63.3475 12.6127 63.3335 12.8693 63.3055 13.14H57.1735C57.2201 13.896 57.4768 14.4887 57.9435 14.918C58.4195 15.338 58.9935 15.548 59.6655 15.548C60.2161 15.548 60.6735 15.422 61.0375 15.17C61.4108 14.9087 61.6721 14.5633 61.8215 14.134H63.1935C62.9881 14.8713 62.5775 15.4733 61.9615 15.94C61.3455 16.3973 60.5801 16.626 59.6655 16.626C58.9375 16.626 58.2841 16.4627 57.7055 16.136C57.1361 15.8093 56.6881 15.3473 56.3615 14.75C56.0348 14.1433 55.8715 13.4433 55.8715 12.65C55.8715 11.8567 56.0301 11.1613 56.3475 10.564C56.6648 9.96667 57.1081 9.50933 57.6775 9.192C58.2561 8.86533 58.9188 8.702 59.6655 8.702C60.3935 8.702 61.0375 8.86067 61.5975 9.178C62.1575 9.49533 62.5868 9.934 62.8855 10.494C63.1935 11.0447 63.3475 11.67 63.3475 12.37ZM62.0315 12.104C62.0315 11.6187 61.9241 11.2033 61.7095 10.858C61.4948 10.5033 61.2008 10.2373 60.8275 10.06C60.4635 9.87333 60.0575 9.78 59.6095 9.78C58.9655 9.78 58.4148 9.98533 57.9575 10.396C57.5095 10.8067 57.2528 11.376 57.1875 12.104H62.0315ZM66.1631 10.074C66.3871 9.63533 66.7044 9.29467 67.1151 9.052C67.5351 8.80933 68.0438 8.688 68.6411 8.688V10.004H68.3051C66.8771 10.004 66.1631 10.7787 66.1631 12.328V16.5H64.8891V8.828H66.1631V10.074ZM74.8382 6.742V16.5H73.5642V6.742H74.8382ZM79.5855 16.626C78.9975 16.626 78.4702 16.528 78.0035 16.332C77.5368 16.1267 77.1682 15.8467 76.8975 15.492C76.6268 15.128 76.4775 14.7127 76.4495 14.246H77.7655C77.8028 14.6287 77.9802 14.9413 78.2975 15.184C78.6242 15.4267 79.0488 15.548 79.5715 15.548C80.0568 15.548 80.4395 15.4407 80.7195 15.226C80.9995 15.0113 81.1395 14.7407 81.1395 14.414C81.1395 14.078 80.9902 13.8307 80.6915 13.672C80.3928 13.504 79.9308 13.3407 79.3055 13.182C78.7362 13.0327 78.2695 12.8833 77.9055 12.734C77.5508 12.5753 77.2428 12.3467 76.9815 12.048C76.7295 11.74 76.6035 11.3387 76.6035 10.844C76.6035 10.452 76.7202 10.0927 76.9535 9.766C77.1868 9.43933 77.5182 9.18267 77.9475 8.996C78.3768 8.8 78.8668 8.702 79.4175 8.702C80.2668 8.702 80.9528 8.91667 81.4755 9.346C81.9982 9.77533 82.2782 10.3633 82.3155 11.11H81.0415C81.0135 10.7087 80.8502 10.3867 80.5515 10.144C80.2622 9.90133 79.8702 9.78 79.3755 9.78C78.9182 9.78 78.5542 9.878 78.2835 10.074C78.0128 10.27 77.8775 10.5267 77.8775 10.844C77.8775 11.096 77.9568 11.306 78.1155 11.474C78.2835 11.6327 78.4888 11.7633 78.7315 11.866C78.9835 11.9593 79.3288 12.0667 79.7675 12.188C80.3182 12.3373 80.7662 12.4867 81.1115 12.636C81.4568 12.776 81.7508 12.9907 81.9935 13.28C82.2455 13.5693 82.3762 13.9473 82.3855 14.414C82.3855 14.834 82.2688 15.212 82.0355 15.548C81.8022 15.884 81.4708 16.15 81.0415 16.346C80.6215 16.5327 80.1362 16.626 79.5855 16.626ZM86.7599 16.626C86.1719 16.626 85.6446 16.528 85.1779 16.332C84.7113 16.1267 84.3426 15.8467 84.0719 15.492C83.8013 15.128 83.6519 14.7127 83.6239 14.246H84.9399C84.9773 14.6287 85.1546 14.9413 85.4719 15.184C85.7986 15.4267 86.2233 15.548 86.7459 15.548C87.2313 15.548 87.6139 15.4407 87.8939 15.226C88.1739 15.0113 88.3139 14.7407 88.3139 14.414C88.3139 14.078 88.1646 13.8307 87.8659 13.672C87.5673 13.504 87.1053 13.3407 86.4799 13.182C85.9106 13.0327 85.4439 12.8833 85.0799 12.734C84.7253 12.5753 84.4173 12.3467 84.1559 12.048C83.9039 11.74 83.7779 11.3387 83.7779 10.844C83.7779 10.452 83.8946 10.0927 84.1279 9.766C84.3613 9.43933 84.6926 9.18267 85.1219 8.996C85.5513 8.8 86.0413 8.702 86.5919 8.702C87.4413 8.702 88.1273 8.91667 88.6499 9.346C89.1726 9.77533 89.4526 10.3633 89.4899 11.11H88.2159C88.1879 10.7087 88.0246 10.3867 87.7259 10.144C87.4366 9.90133 87.0446 9.78 86.5499 9.78C86.0926 9.78 85.7286 9.878 85.4579 10.074C85.1873 10.27 85.0519 10.5267 85.0519 10.844C85.0519 11.096 85.1313 11.306 85.2899 11.474C85.4579 11.6327 85.6633 11.7633 85.9059 11.866C86.1579 11.9593 86.5033 12.0667 86.9419 12.188C87.4926 12.3373 87.9406 12.4867 88.2859 12.636C88.6313 12.776 88.9253 12.9907 89.1679 13.28C89.4199 13.5693 89.5506 13.9473 89.5599 14.414C89.5599 14.834 89.4433 15.212 89.2099 15.548C88.9766 15.884 88.6453 16.15 88.2159 16.346C87.7959 16.5327 87.3106 16.626 86.7599 16.626ZM98.0224 8.828V16.5H96.7484V15.366C96.5057 15.758 96.1651 16.066 95.7264 16.29C95.2971 16.5047 94.8211 16.612 94.2984 16.612C93.7011 16.612 93.1644 16.4907 92.6884 16.248C92.2124 15.996 91.8344 15.6227 91.5544 15.128C91.2837 14.6333 91.1484 14.0313 91.1484 13.322V8.828H92.4084V13.154C92.4084 13.91 92.5997 14.4933 92.9824 14.904C93.3651 15.3053 93.8877 15.506 94.5504 15.506C95.2317 15.506 95.7684 15.296 96.1604 14.876C96.5524 14.456 96.7484 13.8447 96.7484 13.042V8.828H98.0224ZM107.033 12.37C107.033 12.6127 107.019 12.8693 106.991 13.14H100.859C100.906 13.896 101.163 14.4887 101.629 14.918C102.105 15.338 102.679 15.548 103.351 15.548C103.902 15.548 104.359 15.422 104.723 15.17C105.097 14.9087 105.358 14.5633 105.507 14.134H106.879C106.674 14.8713 106.263 15.4733 105.647 15.94C105.031 16.3973 104.266 16.626 103.351 16.626C102.623 16.626 101.97 16.4627 101.391 16.136C100.822 15.8093 100.374 15.3473 100.047 14.75C99.7208 14.1433 99.5575 13.4433 99.5575 12.65C99.5575 11.8567 99.7161 11.1613 100.033 10.564C100.351 9.96667 100.794 9.50933 101.363 9.192C101.942 8.86533 102.605 8.702 103.351 8.702C104.079 8.702 104.723 8.86067 105.283 9.178C105.843 9.49533 106.273 9.934 106.571 10.494C106.879 11.0447 107.033 11.67 107.033 12.37ZM105.717 12.104C105.717 11.6187 105.61 11.2033 105.395 10.858C105.181 10.5033 104.887 10.2373 104.513 10.06C104.149 9.87333 103.743 9.78 103.295 9.78C102.651 9.78 102.101 9.98533 101.643 10.396C101.195 10.8067 100.939 11.376 100.873 12.104H105.717ZM111.291 16.626C110.703 16.626 110.176 16.528 109.709 16.332C109.242 16.1267 108.874 15.8467 108.603 15.492C108.332 15.128 108.183 14.7127 108.155 14.246H109.471C109.508 14.6287 109.686 14.9413 110.003 15.184C110.33 15.4267 110.754 15.548 111.277 15.548C111.762 15.548 112.145 15.4407 112.425 15.226C112.705 15.0113 112.845 14.7407 112.845 14.414C112.845 14.078 112.696 13.8307 112.397 13.672C112.098 13.504 111.636 13.3407 111.011 13.182C110.442 13.0327 109.975 12.8833 109.611 12.734C109.256 12.5753 108.948 12.3467 108.687 12.048C108.435 11.74 108.309 11.3387 108.309 10.844C108.309 10.452 108.426 10.0927 108.659 9.766C108.892 9.43933 109.224 9.18267 109.653 8.996C110.082 8.8 110.572 8.702 111.123 8.702C111.972 8.702 112.658 8.91667 113.181 9.346C113.704 9.77533 113.984 10.3633 114.021 11.11H112.747C112.719 10.7087 112.556 10.3867 112.257 10.144C111.968 9.90133 111.576 9.78 111.081 9.78C110.624 9.78 110.26 9.878 109.989 10.074C109.718 10.27 109.583 10.5267 109.583 10.844C109.583 11.096 109.662 11.306 109.821 11.474C109.989 11.6327 110.194 11.7633 110.437 11.866C110.689 11.9593 111.034 12.0667 111.473 12.188C112.024 12.3373 112.472 12.4867 112.817 12.636C113.162 12.776 113.456 12.9907 113.699 13.28C113.951 13.5693 114.082 13.9473 114.091 14.414C114.091 14.834 113.974 15.212 113.741 15.548C113.508 15.884 113.176 16.15 112.747 16.346C112.327 16.5327 111.842 16.626 111.291 16.626Z" fill="#1E1E1E"/>
<path d="M129.178 6.0625V11.6875C129.178 12.0156 128.921 12.25 128.616 12.25C128.288 12.25 128.053 12.0156 128.053 11.6875V7.42188L122.639 12.8359C122.522 12.9531 122.382 13 122.241 13C122.077 13 121.936 12.9531 121.842 12.8359C121.608 12.625 121.608 12.2734 121.842 12.0625L127.257 6.625H122.991C122.663 6.625 122.428 6.39063 122.428 6.0625C122.428 5.75781 122.663 5.5 122.991 5.5H128.616C128.921 5.5 129.178 5.75781 129.178 6.0625Z" fill="#1F1F1F"/>
</svg>
