<svg width="99" height="21" viewBox="0 0 99 21" fill="none" xmlns="http://www.w3.org/2000/svg">
<path d="M2.352 13.964H5.768V15H1.078V5.242H2.352V13.964ZM13.981 10.87C13.981 11.1127 13.967 11.3693 13.939 11.64H7.80697C7.85364 12.396 8.1103 12.9887 8.57697 13.418C9.05297 13.838 9.62697 14.048 10.299 14.048C10.8496 14.048 11.307 13.922 11.671 13.67C12.0443 13.4087 12.3056 13.0633 12.455 12.634H13.827C13.6216 13.3713 13.211 13.9733 12.595 14.44C11.979 14.8973 11.2136 15.126 10.299 15.126C9.57097 15.126 8.91764 14.9627 8.33897 14.636C7.76964 14.3093 7.32164 13.8473 6.99497 13.25C6.6683 12.6433 6.50497 11.9433 6.50497 11.15C6.50497 10.3567 6.66364 9.66133 6.98097 9.064C7.2983 8.46667 7.74164 8.00933 8.31097 7.692C8.88964 7.36533 9.5523 7.202 10.299 7.202C11.027 7.202 11.671 7.36067 12.231 7.678C12.791 7.99533 13.2203 8.434 13.519 8.994C13.827 9.54467 13.981 10.17 13.981 10.87ZM12.665 10.604C12.665 10.1187 12.5576 9.70333 12.343 9.358C12.1283 9.00333 11.8343 8.73733 11.461 8.56C11.097 8.37333 10.691 8.28 10.243 8.28C9.59897 8.28 9.0483 8.48533 8.59097 8.896C8.14297 9.30667 7.8863 9.876 7.82097 10.604H12.665ZM15.0466 11.136C15.0466 10.352 15.2053 9.666 15.5226 9.078C15.8399 8.48067 16.2739 8.01867 16.8246 7.692C17.3846 7.36533 18.0053 7.202 18.6866 7.202C19.3586 7.202 19.9419 7.34667 20.4366 7.636C20.9313 7.92533 21.2999 8.28933 21.5426 8.728V7.328H22.8306V15H21.5426V13.572C21.2906 14.02 20.9126 14.3933 20.4086 14.692C19.9139 14.9813 19.3353 15.126 18.6726 15.126C17.9913 15.126 17.3753 14.958 16.8246 14.622C16.2739 14.286 15.8399 13.8147 15.5226 13.208C15.2053 12.6013 15.0466 11.9107 15.0466 11.136ZM21.5426 11.15C21.5426 10.5713 21.4259 10.0673 21.1926 9.638C20.9593 9.20867 20.6419 8.882 20.2406 8.658C19.8486 8.42467 19.4146 8.308 18.9386 8.308C18.4626 8.308 18.0286 8.42 17.6366 8.644C17.2446 8.868 16.9319 9.19467 16.6986 9.624C16.4653 10.0533 16.3486 10.5573 16.3486 11.136C16.3486 11.724 16.4653 12.2373 16.6986 12.676C16.9319 13.1053 17.2446 13.4367 17.6366 13.67C18.0286 13.894 18.4626 14.006 18.9386 14.006C19.4146 14.006 19.8486 13.894 20.2406 13.67C20.6419 13.4367 20.9593 13.1053 21.1926 12.676C21.4259 12.2373 21.5426 11.7287 21.5426 11.15ZM26.1175 8.574C26.3415 8.13533 26.6589 7.79467 27.0695 7.552C27.4895 7.30933 27.9982 7.188 28.5955 7.188V8.504H28.2595C26.8315 8.504 26.1175 9.27867 26.1175 10.828V15H24.8435V7.328H26.1175V8.574ZM33.6642 7.188C34.5975 7.188 35.3535 7.47267 35.9322 8.042C36.5109 8.602 36.8002 9.414 36.8002 10.478V15H35.5402V10.66C35.5402 9.89467 35.3489 9.31133 34.9662 8.91C34.5835 8.49933 34.0609 8.294 33.3982 8.294C32.7262 8.294 32.1895 8.504 31.7882 8.924C31.3962 9.344 31.2002 9.95533 31.2002 10.758V15H29.9262V7.328H31.2002V8.42C31.4522 8.028 31.7929 7.72467 32.2222 7.51C32.6609 7.29533 33.1415 7.188 33.6642 7.188ZM51.5597 7.188C52.157 7.188 52.689 7.314 53.1557 7.566C53.6224 7.80867 53.991 8.17733 54.2617 8.672C54.5324 9.16667 54.6677 9.76867 54.6677 10.478V15H53.4077V10.66C53.4077 9.89467 53.2164 9.31133 52.8337 8.91C52.4604 8.49933 51.9517 8.294 51.3077 8.294C50.645 8.294 50.1177 8.50867 49.7257 8.938C49.3337 9.358 49.1377 9.96933 49.1377 10.772V15H47.8777V10.66C47.8777 9.89467 47.6864 9.31133 47.3037 8.91C46.9304 8.49933 46.4217 8.294 45.7777 8.294C45.115 8.294 44.5877 8.50867 44.1957 8.938C43.8037 9.358 43.6077 9.96933 43.6077 10.772V15H42.3337V7.328H43.6077V8.434C43.8597 8.03267 44.1957 7.72467 44.6157 7.51C45.045 7.29533 45.5164 7.188 46.0297 7.188C46.6737 7.188 47.243 7.33267 47.7377 7.622C48.2324 7.91133 48.601 8.336 48.8437 8.896C49.0584 8.35467 49.413 7.93467 49.9077 7.636C50.4024 7.33733 50.953 7.188 51.5597 7.188ZM59.9635 15.126C59.2449 15.126 58.5915 14.9627 58.0035 14.636C57.4249 14.3093 56.9675 13.8473 56.6315 13.25C56.3049 12.6433 56.1415 11.9433 56.1415 11.15C56.1415 10.366 56.3095 9.67533 56.6455 9.078C56.9909 8.47133 57.4575 8.00933 58.0455 7.692C58.6335 7.36533 59.2915 7.202 60.0195 7.202C60.7475 7.202 61.4055 7.36533 61.9935 7.692C62.5815 8.00933 63.0435 8.46667 63.3795 9.064C63.7249 9.66133 63.8975 10.3567 63.8975 11.15C63.8975 11.9433 63.7202 12.6433 63.3655 13.25C63.0202 13.8473 62.5489 14.3093 61.9515 14.636C61.3542 14.9627 60.6915 15.126 59.9635 15.126ZM59.9635 14.006C60.4209 14.006 60.8502 13.8987 61.2515 13.684C61.6529 13.4693 61.9749 13.1473 62.2175 12.718C62.4695 12.2887 62.5955 11.766 62.5955 11.15C62.5955 10.534 62.4742 10.0113 62.2315 9.582C61.9889 9.15267 61.6715 8.83533 61.2795 8.63C60.8875 8.41533 60.4629 8.308 60.0055 8.308C59.5389 8.308 59.1095 8.41533 58.7175 8.63C58.3349 8.83533 58.0269 9.15267 57.7935 9.582C57.5602 10.0113 57.4435 10.534 57.4435 11.15C57.4435 11.7753 57.5555 12.3027 57.7795 12.732C58.0129 13.1613 58.3209 13.4833 58.7035 13.698C59.0862 13.9033 59.5062 14.006 59.9635 14.006ZM66.7066 8.574C66.9306 8.13533 67.2479 7.79467 67.6586 7.552C68.0786 7.30933 68.5873 7.188 69.1846 7.188V8.504H68.8486C67.4206 8.504 66.7066 9.27867 66.7066 10.828V15H65.4326V7.328H66.7066V8.574ZM77.5153 10.87C77.5153 11.1127 77.5013 11.3693 77.4733 11.64H71.3413C71.3879 12.396 71.6446 12.9887 72.1113 13.418C72.5873 13.838 73.1613 14.048 73.8333 14.048C74.3839 14.048 74.8413 13.922 75.2053 13.67C75.5786 13.4087 75.8399 13.0633 75.9893 12.634H77.3613C77.1559 13.3713 76.7453 13.9733 76.1293 14.44C75.5133 14.8973 74.7479 15.126 73.8333 15.126C73.1053 15.126 72.4519 14.9627 71.8733 14.636C71.3039 14.3093 70.8559 13.8473 70.5293 13.25C70.2026 12.6433 70.0393 11.9433 70.0393 11.15C70.0393 10.3567 70.1979 9.66133 70.5153 9.064C70.8326 8.46667 71.2759 8.00933 71.8453 7.692C72.4239 7.36533 73.0866 7.202 73.8333 7.202C74.5613 7.202 75.2053 7.36067 75.7653 7.678C76.3253 7.99533 76.7546 8.434 77.0533 8.994C77.3613 9.54467 77.5153 10.17 77.5153 10.87ZM76.1993 10.604C76.1993 10.1187 76.0919 9.70333 75.8773 9.358C75.6626 9.00333 75.3686 8.73733 74.9953 8.56C74.6313 8.37333 74.2253 8.28 73.7773 8.28C73.1333 8.28 72.5826 8.48533 72.1253 8.896C71.6773 9.30667 71.4206 9.876 71.3553 10.604H76.1993Z" fill="#1E1E1E"/>
<path d="M0 16.4H78.1173V17.1H0V16.4Z" fill="#1E1E1E"/>
<path d="M95.1784 7.0625V12.6875C95.1784 13.0156 94.9206 13.25 94.6159 13.25C94.2878 13.25 94.0534 13.0156 94.0534 12.6875V8.42188L88.6393 13.8359C88.5221 13.9531 88.3815 14 88.2409 14C88.0768 14 87.9362 13.9531 87.8424 13.8359C87.6081 13.625 87.6081 13.2734 87.8424 13.0625L93.2565 7.625H88.9909C88.6628 7.625 88.4284 7.39062 88.4284 7.0625C88.4284 6.75781 88.6628 6.5 88.9909 6.5H94.6159C94.9206 6.5 95.1784 6.75781 95.1784 7.0625Z" fill="#1F1F1F"/>
</svg>
