<svg width="13" height="9" viewBox="0 0 13 9" fill="none" xmlns="http://www.w3.org/2000/svg">
<g clip-path="url(#clip0_11861_35333)">
<path d="M0.179688 0.959595H12.1797V8.7596H0.179688V0.959595Z" fill="white"/>
<path d="M5.01855 6.74648H7.34056V2.96948H5.01855V6.74348V6.74648Z" fill="#F06022"/>
<path d="M5.2586 4.85933C5.25751 4.4953 5.33998 4.13587 5.49965 3.80872C5.65932 3.48158 5.89195 3.19544 6.1796 2.97233C5.71583 2.60731 5.13407 2.42549 4.54497 2.46144C3.95588 2.4974 3.40054 2.74862 2.9846 3.16733C2.76183 3.38921 2.58506 3.65289 2.46444 3.94324C2.34383 4.2336 2.28174 4.54492 2.28174 4.85933C2.28174 5.17375 2.34383 5.48507 2.46444 5.77542C2.58506 6.06578 2.76183 6.32946 2.9846 6.55133C3.40054 6.97005 3.95588 7.22127 4.54497 7.25723C5.13407 7.29318 5.71583 7.11136 6.1796 6.74633C5.89345 6.52186 5.66191 6.23544 5.50239 5.90861C5.34287 5.58177 5.25952 5.22302 5.2586 4.85933Z" fill="#EA1D25"/>
<path d="M10.0797 4.85935C10.0797 5.49535 9.82769 6.10435 9.37769 6.55435C8.95857 6.96875 8.40314 7.21669 7.81481 7.25201C7.22648 7.28733 6.64537 7.10762 6.17969 6.74635C6.46534 6.52144 6.69653 6.23492 6.856 5.90819C7.01548 5.58145 7.09912 5.22293 7.10069 4.85935C7.1011 4.49544 7.01834 4.13624 6.85872 3.80919C6.6991 3.48215 6.46684 3.19592 6.17969 2.97235C6.64332 2.60611 7.22551 2.42326 7.81529 2.45867C8.40507 2.49408 8.9612 2.74527 9.37769 3.16435C9.60107 3.38635 9.77815 3.6505 9.89865 3.94146C10.0192 4.23243 10.0807 4.54442 10.0797 4.85935Z" fill="#F79D1D"/>
</g>
<defs>
<clipPath id="clip0_11861_35333">
<rect width="12" height="7.8" fill="white" transform="translate(0.179688 0.959351)"/>
</clipPath>
</defs>
</svg>
