<svg width="28" height="28" viewBox="0 0 28 28" fill="none" xmlns="http://www.w3.org/2000/svg">
<rect width="28" height="28" rx="14" fill="#CBCBCB"/>
<path d="M20.354 14.2312C20.354 14.6414 20.0317 14.9343 19.6509 14.9343H14.9634V19.6218C14.9634 20.032 14.6411 20.3542 14.2603 20.3542C13.8501 20.3542 13.5571 20.032 13.5571 19.6218V14.9343H8.86963C8.45947 14.9343 8.1665 14.6414 8.1665 14.2605C8.1665 13.8503 8.45947 13.5281 8.86963 13.5281H13.5571V8.84058C13.5571 8.45972 13.8501 8.16675 14.2603 8.16675C14.6411 8.16675 14.9634 8.45972 14.9634 8.84058V13.5281H19.6509C20.0317 13.5281 20.354 13.8503 20.354 14.2312Z" fill="#1F1F1F"/>
</svg>
