<svg width="12" height="16" viewBox="0 0 12 16" fill="none" xmlns="http://www.w3.org/2000/svg">
<path d="M5.08862 15.1484C3.56519 13.2441 0.166748 8.70312 0.166748 6.125C0.166748 3.01953 2.65698 0.5 5.79175 0.5C8.89722 0.5 11.4167 3.01953 11.4167 6.125C11.4167 8.70312 7.98901 13.2441 6.46558 15.1484C6.11401 15.5879 5.44019 15.5879 5.08862 15.1484ZM5.79175 8C6.81714 8 7.66675 7.17969 7.66675 6.125C7.66675 5.09961 6.81714 4.25 5.79175 4.25C4.73706 4.25 3.91675 5.09961 3.91675 6.125C3.91675 7.17969 4.73706 8 5.79175 8Z" fill="white"/>
</svg>
