<svg width="45" height="24" viewBox="0 0 45 24" fill="none" xmlns="http://www.w3.org/2000/svg">
<path d="M8.096 6.848V8.032H5.056V18H3.6V8.032H0.544V6.848H8.096ZM9.18425 13.584C9.18425 12.688 9.36558 11.904 9.72825 11.232C10.0909 10.5493 10.5869 10.0213 11.2163 9.648C11.8563 9.27467 12.5656 9.088 13.3443 9.088C14.1123 9.088 14.7789 9.25333 15.3443 9.584C15.9096 9.91467 16.3309 10.3307 16.6083 10.832V9.232H18.0803V18H16.6083V16.368C16.3203 16.88 15.8883 17.3067 15.3123 17.648C14.7469 17.9787 14.0856 18.144 13.3283 18.144C12.5496 18.144 11.8456 17.952 11.2163 17.568C10.5869 17.184 10.0909 16.6453 9.72825 15.952C9.36558 15.2587 9.18425 14.4693 9.18425 13.584ZM16.6083 13.6C16.6083 12.9387 16.4749 12.3627 16.2083 11.872C15.9416 11.3813 15.5789 11.008 15.1203 10.752C14.6723 10.4853 14.1763 10.352 13.6323 10.352C13.0883 10.352 12.5923 10.48 12.1443 10.736C11.6963 10.992 11.3389 11.3653 11.0723 11.856C10.8056 12.3467 10.6723 12.9227 10.6723 13.584C10.6723 14.256 10.8056 14.8427 11.0723 15.344C11.3389 15.8347 11.6963 16.2133 12.1443 16.48C12.5923 16.736 13.0883 16.864 13.6323 16.864C14.1763 16.864 14.6723 16.736 15.1203 16.48C15.5789 16.2133 15.9416 15.8347 16.2083 15.344C16.4749 14.8427 16.6083 14.2613 16.6083 13.6ZM24.9568 18L22.8768 14.736L20.8768 18H19.3568L22.1888 13.648L19.3568 9.232H21.0048L23.0848 12.48L25.0688 9.232H26.5888L23.7728 13.568L26.6048 18H24.9568Z" fill="#8F8F8F"/>
<path d="M37 6C33.6719 6 31 8.69531 31 12C31 15.3281 33.6719 18 37 18C40.3047 18 43 15.3281 43 12C43 8.69531 40.3047 6 37 6ZM37 9C37.3984 9 37.75 9.35156 37.75 9.75C37.75 10.1719 37.3984 10.5 37 10.5C36.5781 10.5 36.25 10.1719 36.25 9.75C36.25 9.35156 36.5781 9 37 9ZM37.9375 15H36.0625C35.7344 15 35.5 14.7656 35.5 14.4375C35.5 14.1328 35.7344 13.875 36.0625 13.875H36.4375V12.375H36.25C35.9219 12.375 35.6875 12.1406 35.6875 11.8125C35.6875 11.5078 35.9219 11.25 36.25 11.25H37C37.3047 11.25 37.5625 11.5078 37.5625 11.8125V13.875H37.9375C38.2422 13.875 38.5 14.1328 38.5 14.4375C38.5 14.7656 38.2422 15 37.9375 15Z" fill="#8F8F8F"/>
</svg>
