<svg width="20" height="20" viewBox="0 0 20 20" fill="none" xmlns="http://www.w3.org/2000/svg">
<path d="M8.021 14.2188C8.021 14.4824 7.78662 14.6875 7.55225 14.6875C7.28857 14.6875 7.0835 14.4824 7.0835 14.2188V8.125C7.0835 7.89062 7.28857 7.65625 7.55225 7.65625C7.78662 7.65625 8.021 7.89062 8.021 8.125V14.2188ZM10.3647 14.2188C10.3647 14.4824 10.1304 14.6875 9.896 14.6875C9.63232 14.6875 9.42725 14.4824 9.42725 14.2188V8.125C9.42725 7.89062 9.63232 7.65625 9.896 7.65625C10.1304 7.65625 10.3647 7.89062 10.3647 8.125V14.2188ZM12.7085 14.2188C12.7085 14.4824 12.4741 14.6875 12.2397 14.6875C11.9761 14.6875 11.771 14.4824 11.771 14.2188V8.125C11.771 7.89062 11.9761 7.65625 12.2397 7.65625C12.4741 7.65625 12.7085 7.89062 12.7085 8.125V14.2188ZM12.6206 3.23242L13.7046 4.84375H15.7554C16.1362 4.84375 16.4585 5.16602 16.4585 5.54688C16.4585 5.95703 16.1362 6.25 15.7554 6.25H15.521V15.1562C15.521 16.4746 14.4663 17.5 13.1772 17.5H6.61475C5.29639 17.5 4.271 16.4746 4.271 15.1562V6.25H4.03662C3.62646 6.25 3.3335 5.95703 3.3335 5.54688C3.3335 5.16602 3.62646 4.84375 4.03662 4.84375H6.05811L7.14209 3.23242C7.43506 2.79297 7.9624 2.5 8.51904 2.5H11.2437C11.8003 2.5 12.3276 2.79297 12.6206 3.23242ZM7.75732 4.84375H12.0054L11.4487 4.02344C11.4194 3.96484 11.3315 3.90625 11.2437 3.90625H8.51904C8.43115 3.90625 8.34326 3.96484 8.31396 4.02344L7.75732 4.84375ZM5.67725 15.1562C5.67725 15.6836 6.0874 16.0938 6.61475 16.0938H13.1772C13.6753 16.0938 14.1147 15.6836 14.1147 15.1562V6.25H5.67725V15.1562Z" fill="black"/>
</svg>
