<svg width="13" height="9" viewBox="0 0 13 9" fill="none" xmlns="http://www.w3.org/2000/svg">
<g clip-path="url(#clip0_11861_35341)">
<path d="M0.179688 0.959595H12.1797V8.75959H0.179688V0.959595Z" fill="white"/>
<path d="M4.94959 3.26947L3.62059 6.44947H2.75059L2.09059 3.90847C2.05159 3.75247 2.01559 3.69547 1.89559 3.62947C1.69459 3.52447 1.36759 3.41947 1.07959 3.35947L1.10059 3.26347H2.50159C2.68159 3.26347 2.84059 3.38347 2.88259 3.59047L3.22759 5.43247L4.08559 3.26347H4.95259L4.94959 3.26947ZM8.36659 5.41447C8.36659 4.57447 7.20259 4.52647 7.21159 4.15147C7.21159 4.03747 7.32259 3.91447 7.55959 3.88147C7.8386 3.85558 8.11944 3.90533 8.37259 4.02547L8.51659 3.35047C8.26999 3.25812 8.00892 3.21037 7.74559 3.20947C6.93259 3.20947 6.35959 3.64147 6.35359 4.26247C6.34759 4.72147 6.76159 4.97647 7.07359 5.13247C7.39759 5.28547 7.50559 5.38747 7.50259 5.52547C7.50259 5.73847 7.24759 5.83447 7.01059 5.83747C6.59359 5.84347 6.35359 5.72647 6.16459 5.63647L6.01459 6.33547C6.20659 6.42247 6.56059 6.50047 6.92959 6.50347C7.79659 6.50347 8.36359 6.07747 8.36659 5.41447ZM10.5176 6.45247H11.2796L10.6136 3.26947H9.91159C9.75259 3.26947 9.61759 3.35947 9.56059 3.50347L8.32459 6.45547H9.18859L9.35959 5.98147H10.4186L10.5176 6.45547V6.45247ZM9.59659 5.32447L10.0316 4.12747L10.2806 5.32747H9.59959L9.59659 5.32447ZM6.12859 3.26947L5.44759 6.45547H4.62559L5.30659 3.26947H6.12859Z" fill="#1434CB"/>
</g>
<defs>
<clipPath id="clip0_11861_35341">
<rect width="12" height="7.8" fill="white" transform="translate(0.179688 0.959351)"/>
</clipPath>
</defs>
</svg>
